<svg width="18" height="18" viewBox="0 0 18 18" fill="none" xmlns="http://www.w3.org/2000/svg">
<path d="M5.00997 6.90923H4.43189C3.64303 6.87998 2.85672 7.01739 2.12176 7.31293C1.38681 7.60848 0.718895 8.05586 0.159468 8.6273L0 8.8182V15.3204H2.71096V11.2589L3.07641 10.8362L3.24253 10.6385C4.10759 9.72666 5.18457 9.05565 6.37209 8.68866C5.77754 8.22446 5.30863 7.61189 5.00997 6.90923Z" fill="#808080"/>
<path d="M17.8605 8.60685C17.301 8.03541 16.6331 7.58803 15.8982 7.29248C15.1632 6.99693 14.3769 6.85952 13.588 6.88878C13.3461 6.88948 13.1043 6.90314 12.8638 6.92968C12.5595 7.58889 12.1034 8.16219 11.5349 8.60003C12.8026 8.9599 13.9511 9.66693 14.8571 10.6454L15.0233 10.8362L15.3821 11.2589V15.3272H18V8.79775L17.8605 8.60685Z" fill="#808080"/>
<path d="M4.41196 5.57977H4.61794C4.52223 4.73658 4.66643 3.88299 5.03311 3.12204C5.39979 2.36108 5.97329 1.72529 6.68439 1.29141C6.42662 0.887361 6.07101 0.558922 5.65236 0.338258C5.23372 0.117595 4.7664 0.0122734 4.29617 0.0326062C3.82594 0.0529389 3.36891 0.198229 2.96985 0.45425C2.57078 0.71027 2.24336 1.06824 2.01964 1.49312C1.79592 1.91799 1.68357 2.3952 1.6936 2.87801C1.70363 3.36082 1.83569 3.83268 2.07685 4.24738C2.31801 4.66209 2.66 5.00542 3.06933 5.24377C3.47867 5.48211 3.94131 5.60729 4.41196 5.60704V5.57977Z" fill="#808080"/>
<path d="M13.2691 5.06844C13.2772 5.22514 13.2772 5.38217 13.2691 5.53887C13.3966 5.55961 13.5254 5.571 13.6545 5.57296H13.7807C14.2493 5.54732 14.7034 5.39762 15.0989 5.13845C15.4944 4.87927 15.8177 4.51944 16.0374 4.09399C16.2571 3.66855 16.3657 3.19198 16.3526 2.71069C16.3395 2.22939 16.2052 1.75978 15.9627 1.34756C15.7202 0.935346 15.3779 0.594575 14.9689 0.358426C14.56 0.122277 14.0984 -0.00120239 13.6292 8.82543e-06C13.1599 0.00122004 12.699 0.127081 12.2912 0.365338C11.8835 0.603595 11.5428 0.946129 11.3023 1.35959C11.9037 1.76248 12.3982 2.31224 12.7415 2.95956C13.0848 3.60688 13.2661 4.33151 13.2691 5.06844Z" fill="#808080"/>
<path d="M8.9103 8.12279C10.5506 8.12279 11.8804 6.75836 11.8804 5.07526C11.8804 3.39216 10.5506 2.02773 8.9103 2.02773C7.26996 2.02773 5.9402 3.39216 5.9402 5.07526C5.9402 6.75836 7.26996 8.12279 8.9103 8.12279Z" fill="#808080"/>
<path d="M9.06977 9.74541C8.20202 9.70946 7.33616 9.85401 6.52428 10.1704C5.7124 10.4867 4.97128 10.9683 4.34552 11.5862L4.1794 11.7771V16.9499C4.18199 17.0904 4.21155 17.2291 4.26639 17.358C4.32122 17.4868 4.40026 17.6033 4.49899 17.7008C4.59771 17.7983 4.71419 17.8749 4.84177 17.9262C4.96935 17.9775 5.10553 18.0025 5.24253 17.9998H12.8771C13.0141 18.0025 13.1503 17.9775 13.2778 17.9262C13.4054 17.8749 13.5219 17.7983 13.6206 17.7008C13.7193 17.6033 13.7984 17.4868 13.8532 17.358C13.908 17.2291 13.9376 17.0904 13.9402 16.9499V11.7907L13.7807 11.5862C13.159 10.9664 12.4205 10.4834 11.6104 10.1669C10.8003 9.85038 9.93579 9.70695 9.06977 9.74541Z" fill="#808080"/>
</svg>
