<svg width="18" height="18" viewBox="0 0 18 18" fill="none" xmlns="http://www.w3.org/2000/svg">
<path d="M10.7308 7.08969C11.1024 7.46125 11.3588 7.93124 11.4677 8.44023C11.5766 8.94921 11.5331 9.47433 11.3426 9.94919C11.1521 10.424 10.8233 10.8273 10.3976 11.108C9.97198 11.3886 9.46866 11.5341 8.95132 11.526C8.43398 11.5179 7.92584 11.3565 7.49118 11.0624C7.05651 10.7682 6.71483 10.3544 6.50935 9.87333C6.30387 9.39225 6.24382 8.86551 6.33678 8.35969C6.42974 7.85387 6.67155 7.3917 7.03163 7.03163C7.51447 6.54878 8.17547 6.28364 8.8692 6.29453C9.56294 6.30542 10.2326 6.59145 10.7308 7.08969ZM11.0825 0.159097L17.8409 6.91749C17.9406 7.01714 17.9978 7.15107 17.9999 7.28982C18.0021 7.42856 17.9491 7.56076 17.8525 7.65733L7.65733 17.8525C7.56076 17.9491 7.42856 18.0021 7.28982 17.9999C7.15107 17.9978 7.01714 17.9406 6.91749 17.8409L0.159097 11.0825C0.0594479 10.9829 0.00224235 10.8489 6.45247e-05 10.7102C-0.0021133 10.5714 0.050915 10.4392 0.147484 10.3427L10.3427 0.147484C10.4392 0.0509149 10.5714 -0.0021133 10.7102 6.45248e-05C10.8489 0.00224235 10.9829 0.0594482 11.0825 0.159097ZM12.5311 3.06419C11.9915 3.35149 11.3844 3.4969 10.7649 3.48718C10.1455 3.47746 9.53342 3.31291 8.98454 3.00852L3.00852 8.98454C3.31291 9.53342 3.47746 10.1455 3.48718 10.7649C3.4969 11.3844 3.35149 11.9915 3.06419 12.5311L5.46885 14.9358C6.00845 14.6485 6.61563 14.5031 7.23508 14.5128C7.85453 14.5225 8.46658 14.6871 9.01546 14.9915L14.9915 9.01546C14.6871 8.46658 14.5225 7.85453 14.5128 7.23508C14.5031 6.61563 14.6485 6.00845 14.9358 5.46885L12.5311 3.06419Z" fill="#808080"/>
<path d="M18 17.4934V8.38157L17.025 9.34056V14.5585C16.4715 14.7286 15.9677 15.0399 15.5595 15.464C15.1513 15.8882 14.8518 16.4117 14.6881 16.9869H9.29447L8.29688 18L17.5125 18C17.6418 18 17.7658 17.9466 17.8573 17.8516C17.9487 17.7566 18 17.6278 18 17.4934Z" fill="#808080"/>
<path d="M12.7142 14.2237C12.902 13.9317 13.0283 13.6039 13.0872 13.2614L11.0754 15.3171C11.2614 15.2859 11.4444 15.2323 11.6203 15.1565C12.0657 14.9648 12.4464 14.6402 12.7142 14.2237Z" fill="#808080"/>
<path d="M0 17.4976C0 17.6308 0.0500665 17.7586 0.139184 17.8528C0.228301 17.9471 0.349169 18 0.475201 18L6.75 18L5.74519 16.9952H3.2284C3.06886 16.4247 2.77685 15.9055 2.37897 15.4849C1.98109 15.0642 1.48999 14.7555 0.950404 14.5868V12.2004L0 11.25V17.4976Z" fill="#808080"/>
</svg>
