<svg width="18" height="18" viewBox="0 0 18 18" fill="none" xmlns="http://www.w3.org/2000/svg">
<path d="M8.99939 11.125H9C10.1583 11.125 11.2979 11.2611 12.4206 11.5333C13.5415 11.8052 14.6499 12.213 15.7465 12.76C16.1216 12.9553 16.4218 13.2344 16.6563 13.6162C16.8864 13.9907 17.0005 14.3944 17 14.8488V14.85V17H1V14.85C1 14.3942 1.11464 13.9897 1.34482 13.6151C1.57952 13.233 1.87939 12.9545 2.2535 12.76C3.3501 12.2123 4.4585 11.804 5.57942 11.5322C6.70189 11.26 7.84132 11.1243 8.99939 11.125ZM9 8C8.02983 8 7.22419 7.66623 6.52898 6.97102C5.83377 6.27581 5.5 5.47018 5.5 4.5C5.5 3.52982 5.83377 2.72419 6.52898 2.02898C7.22419 1.33377 8.02983 1 9 1C9.97017 1 10.7758 1.33377 11.471 2.02898C12.1662 2.72419 12.5 3.52983 12.5 4.5C12.5 5.47017 12.1662 6.27581 11.471 6.97102C10.7758 7.66623 9.97017 8 9 8Z" stroke="#808080" stroke-width="2"/>
</svg>
