<svg width="18" height="18" viewBox="0 0 18 18" fill="none" xmlns="http://www.w3.org/2000/svg">
<path d="M1 16.0012V16V2C1 1.71758 1.08897 1.50025 1.29511 1.29411C1.50121 1.088 1.71782 0.99966 1.99879 1H2H7V17H2C1.71758 17 1.50025 16.911 1.29411 16.7049C1.088 16.4988 0.99966 16.2822 1 16.0012ZM16.0012 17H16H11V10H17V16C17 16.2824 16.911 16.4998 16.7049 16.7059C16.4988 16.912 16.2822 17.0003 16.0012 17ZM17 1.99879V2V6H11V1H16C16.2824 1 16.4998 1.08897 16.7059 1.29511C16.912 1.50121 17.0003 1.71782 17 1.99879Z" stroke="#808080" stroke-width="2"/>
</svg>
