<svg width="18" height="18" viewBox="0 0 18 18" fill="none" xmlns="http://www.w3.org/2000/svg">
<path d="M11.7331 8.99889C11.7328 11.9565 11.0234 14.8686 9.66738 17.4787C9.61016 17.5922 9.53153 17.6929 9.43606 17.7749C9.34058 17.857 9.23016 17.9187 9.11122 17.9566C8.99227 17.9945 8.86717 18.0078 8.74319 17.9956C8.6192 17.9835 8.49879 17.9462 8.38897 17.886C8.27915 17.8257 8.1821 17.7437 8.10346 17.6446C8.02481 17.5456 7.96615 17.4315 7.93087 17.3089C7.89559 17.1864 7.88439 17.0579 7.89794 16.931C7.91149 16.804 7.94951 16.681 8.00978 16.5692C9.22026 14.239 9.85328 11.6392 9.85303 8.99889C9.85303 8.82842 9.78701 8.66492 9.66948 8.54438C9.55196 8.42384 9.39255 8.35611 9.22635 8.35611C9.06014 8.35611 8.90074 8.42384 8.78321 8.54438C8.66568 8.66492 8.59966 8.82842 8.59966 8.99889C8.59966 9.25461 8.50062 9.49984 8.32433 9.68066C8.14804 9.86148 7.90893 9.96306 7.65962 9.96306C7.41031 9.96306 7.17121 9.86148 6.99492 9.68066C6.81863 9.49984 6.71959 9.25461 6.71959 8.99889C6.71959 8.31699 6.98369 7.66302 7.4538 7.18084C7.92391 6.69866 8.56151 6.42778 9.22635 6.42778C9.89118 6.42778 10.5288 6.69866 10.9989 7.18084C11.469 7.66302 11.7331 8.31699 11.7331 8.99889ZM9.22635 3.21389C8.97703 3.21389 8.73793 3.31547 8.56164 3.49629C8.38535 3.6771 8.28631 3.92234 8.28631 4.17806C8.28631 4.43377 8.38535 4.67901 8.56164 4.85983C8.73793 5.04064 8.97703 5.14222 9.22635 5.14222C10.2233 5.14329 11.1791 5.54996 11.884 6.27299C12.589 6.99603 12.9854 7.97637 12.9865 8.99889C12.9865 9.61114 12.9583 10.2298 12.9027 10.8364C12.8905 10.9628 12.9027 11.0904 12.9387 11.2118C12.9747 11.3333 13.0337 11.4463 13.1124 11.5444C13.1911 11.6424 13.2879 11.7235 13.3972 11.783C13.5065 11.8426 13.6262 11.8794 13.7495 11.8914H13.8388C14.0725 11.8911 14.2978 11.8014 14.4706 11.6399C14.6434 11.4784 14.7513 11.2567 14.7733 11.018C14.8352 10.3511 14.8658 9.6714 14.8658 8.99889C14.8641 7.46528 14.2695 5.99495 13.2122 4.91044C12.155 3.82593 10.7216 3.2158 9.22635 3.21389ZM6.71959 6.12487C6.89876 5.95264 7.00511 5.71533 7.01589 5.4637C7.02667 5.21208 6.94103 4.96612 6.77727 4.77843C6.61352 4.59074 6.38466 4.47622 6.13965 4.45937C5.89464 4.44252 5.65293 4.52467 5.46621 4.68826C4.87526 5.23106 4.40243 5.89546 4.0785 6.63817C3.75457 7.38088 3.5868 8.18525 3.58614 8.99889C3.58654 10.64 3.17889 12.2542 2.4017 13.6888C2.28026 13.9125 2.25046 14.1766 2.31884 14.4229C2.38723 14.6691 2.5482 14.8775 2.76635 15.002C2.9845 15.1266 3.24195 15.1572 3.48208 15.087C3.7222 15.0169 3.92532 14.8518 4.04676 14.628C4.97891 12.906 5.46745 10.9685 5.46621 8.99889C5.46668 8.45643 5.57853 7.92015 5.79448 7.42497C6.01044 6.92979 6.32564 6.48681 6.71959 6.12487ZM7.51078 11.2751C7.39063 11.2457 7.266 11.2409 7.14402 11.2609C7.02204 11.281 6.90511 11.3255 6.79991 11.3919C6.69471 11.4583 6.60331 11.5453 6.53092 11.648C6.45853 11.7507 6.40658 11.8669 6.37804 11.9902C6.07647 13.2904 5.57738 14.5338 4.89906 15.6749C4.76941 15.8934 4.72968 16.1557 4.78859 16.4041C4.8475 16.6526 5.00023 16.8669 5.21318 16.9999C5.42614 17.1328 5.68187 17.1736 5.92412 17.1132C6.16638 17.0528 6.3753 16.8961 6.50495 16.6777C7.28556 15.3643 7.86024 13.9332 8.20798 12.437C8.23664 12.3137 8.24134 12.1859 8.22181 12.0608C8.20228 11.9357 8.1589 11.8157 8.09415 11.7078C8.0294 11.5999 7.94455 11.5062 7.84445 11.4319C7.74436 11.3577 7.63097 11.3044 7.51078 11.2751ZM13.5215 13.2091C13.402 13.1772 13.2775 13.1697 13.1551 13.1872C13.0328 13.2046 12.915 13.2466 12.8085 13.3108C12.702 13.375 12.6088 13.46 12.5344 13.5612C12.46 13.6623 12.4057 13.7774 12.3747 13.9001C12.2011 14.5773 11.9919 15.2443 11.748 15.8983C11.659 16.137 11.666 16.4021 11.7675 16.6355C11.869 16.8689 12.0567 17.0514 12.2893 17.1429C12.3964 17.1856 12.5104 17.2074 12.6254 17.2072C12.8157 17.2072 13.0015 17.148 13.1583 17.0374C13.3151 16.9268 13.4355 16.77 13.5035 16.5877C13.7724 15.8682 14.0022 15.1341 14.1921 14.3886C14.2237 14.266 14.2315 14.1382 14.2149 14.0125C14.1983 13.8868 14.1577 13.7657 14.0954 13.6561C14.0331 13.5466 13.9504 13.4507 13.8519 13.374C13.7534 13.2972 13.6411 13.2412 13.5215 13.2091ZM9.22635 0C6.90776 0.00250151 4.6842 0.945233 3.04061 2.62259C1.39702 4.29994 0.466754 6.57584 0.452693 8.9539V8.9997C0.452836 9.76275 0.320196 10.5197 0.061012 11.235C0.0170694 11.3539 -0.00350083 11.4805 0.000486106 11.6077C0.00447305 11.7348 0.0329383 11.8598 0.0842426 11.9756C0.135547 12.0914 0.208676 12.1956 0.299419 12.2823C0.390162 12.3689 0.496726 12.4363 0.612973 12.4806C0.72922 12.5248 0.852853 12.5451 0.976752 12.5401C1.10065 12.5351 1.22237 12.5051 1.33489 12.4516C1.44742 12.3982 1.54853 12.3225 1.6324 12.2288C1.71627 12.1352 1.78124 12.0254 1.82358 11.9059C2.15562 10.9904 2.32798 10.0222 2.33276 9.04549V8.9997C2.32757 7.12447 3.04887 5.32393 4.338 3.99417C5.62712 2.66442 7.37847 1.91438 9.20676 1.90905C11.0351 1.90372 12.7905 2.64355 14.087 3.96577C15.3835 5.28799 16.1147 7.08429 16.1199 8.95952V8.9997C16.1204 10.6585 15.9433 12.3123 15.5919 13.9314C15.5375 14.1809 15.582 14.4424 15.7155 14.6584C15.849 14.8743 16.0607 15.0269 16.304 15.0828C16.3722 15.0983 16.4418 15.1058 16.5116 15.1053C16.7251 15.1051 16.9322 15.0304 17.0988 14.8934C17.2654 14.7564 17.3815 14.5653 17.4281 14.3516C17.8062 12.6087 17.998 10.8287 18 9.04308V8.9997C17.9975 6.61375 17.0724 4.32625 15.4276 2.63905C13.7827 0.951858 11.5526 0.00276483 9.22635 0Z" fill="#808080"/>
</svg>
