<svg width="18" height="18" viewBox="0 0 18 18" fill="none" xmlns="http://www.w3.org/2000/svg">
<path d="M15 16H3V15.6C3 13.6 7 12.5 9 12.5C11 12.5 15 13.6 15 15.6M9 5C9.79565 5 10.5587 5.31607 11.1213 5.87868C11.6839 6.44129 12 7.20435 12 8C12 8.79565 11.6839 9.55871 11.1213 10.1213C10.5587 10.6839 9.79565 11 9 11C8.20435 11 7.44129 10.6839 6.87868 10.1213C6.31607 9.55871 6 8.79565 6 8C6 7.20435 6.31607 6.44129 6.87868 5.87868C7.44129 5.31607 8.20435 5 9 5ZM9 2C9.26522 2 9.51957 2.10536 9.70711 2.29289C9.89464 2.48043 10 2.73478 10 3C10 3.26522 9.89464 3.51957 9.70711 3.70711C9.51957 3.89464 9.26522 4 9 4C8.73478 4 8.48043 3.89464 8.29289 3.70711C8.10536 3.51957 8 3.26522 8 3C8 2.73478 8.10536 2.48043 8.29289 2.29289C8.48043 2.10536 8.73478 2 9 2ZM16 2H11.82C11.4 0.84 10.3 0 9 0C7.7 0 6.6 0.84 6.18 2H2C1.46957 2 0.960859 2.21071 0.585786 2.58579C0.210714 2.96086 0 3.46957 0 4V16C0 16.5304 0.210714 17.0391 0.585786 17.4142C0.960859 17.7893 1.46957 18 2 18H16C16.5304 18 17.0391 17.7893 17.4142 17.4142C17.7893 17.0391 18 16.5304 18 16V4C18 3.46957 17.7893 2.96086 17.4142 2.58579C17.0391 2.21071 16.5304 2 16 2Z" fill="#808080"/>
</svg>
