<svg width="14" height="18" viewBox="0 0 14 18" fill="none" xmlns="http://www.w3.org/2000/svg">
<path d="M9.0125 18L1.16667 11V9H5.25C6.28056 9 7.17033 8.71233 7.91933 8.137C8.66833 7.56167 9.12022 6.84933 9.275 6H0V4H8.925C8.59444 3.41667 8.10328 2.93733 7.4515 2.562C6.79972 2.18667 6.06589 1.99933 5.25 2H0V0H14V2H10.2083C10.4806 2.28333 10.7236 2.59167 10.9375 2.925C11.1514 3.25833 11.3167 3.61667 11.4333 4H14V6H11.6375C11.4819 7.41667 10.8014 8.60433 9.59583 9.563C8.39028 10.5217 6.94167 11.0007 5.25 11H4.40417L12.25 18H9.0125Z" fill="#808080"/>
</svg>
