<svg width="18" height="18" viewBox="0 0 18 18" fill="none" xmlns="http://www.w3.org/2000/svg">
<path d="M17.9846 8.31947C17.9607 8.12068 17.886 7.93789 17.7721 7.78409H17.7749L17.7594 7.76862C17.7018 7.6927 17.6343 7.62578 17.559 7.56645L14.6215 4.60729V2.79255C14.6215 2.48184 14.3698 2.23018 14.0591 2.23018H12.2784L10.2257 0.477875C9.58916 -0.15872 8.47707 -0.159863 7.83963 0.477875L5.79403 2.23018H3.93654C3.62584 2.23018 3.37418 2.48184 3.37418 2.79255V4.64443L0.507533 7.51108C0.20275 7.71268 0 8.05741 0 8.44853V16.8753C0 17.4936 0.506426 18 1.12473 18H16.8709C17.4892 18 17.9956 17.4936 17.9956 16.8753V8.47075C17.9996 8.42014 17.9945 8.36951 17.9846 8.31947ZM4.72614 12.752L1.12476 16.0924V9.57435L4.72614 12.752ZM5.81039 13.2792C5.88702 13.2466 5.95535 13.1972 6.01033 13.1347C6.04042 13.1007 6.06404 13.0633 6.08456 13.0248L8.50807 10.7764C8.63544 10.6738 8.78644 10.6198 8.94531 10.6198C9.10669 10.6198 9.26809 10.6763 9.37634 10.7604L16.1219 16.875H1.9343L5.81039 13.2792ZM13.3281 12.8262L16.871 9.68233V16.0376L13.3281 12.8262ZM15.7814 7.32377H15.7642L16.729 8.30425L14.6215 10.1747V6.16418L15.7814 7.32377ZM8.63488 1.27302C8.74145 1.16702 8.88259 1.10825 9.03246 1.10825C9.18289 1.10825 9.32404 1.16702 9.43061 1.27302L10.5663 2.23016H7.50086L8.63488 1.27302ZM13.4968 3.35489V11.1726L12.4896 12.0667L10.0939 9.89518C9.43173 9.37612 8.48108 9.35361 7.77979 9.91936L5.55452 11.9832L4.49896 11.0517V3.35489H13.4968ZM1.8249 7.78405L3.37422 6.23528V10.0596L1.32468 8.25136L1.79904 7.78403L1.8249 7.78405Z" fill="#808080"/>
<path d="M4.72614 12.752L1.12476 16.0924V9.57435L4.72614 12.752Z" fill="#808080"/>
<path d="M5.81039 13.2792C5.88702 13.2466 5.95535 13.1972 6.01033 13.1347C6.04042 13.1007 6.06404 13.0633 6.08456 13.0248L8.50807 10.7764C8.63544 10.6738 8.78644 10.6198 8.94531 10.6198C9.10669 10.6198 9.26809 10.6763 9.37634 10.7604L16.1219 16.875H1.9343L5.81039 13.2792Z" fill="#808080"/>
<path d="M13.3281 12.8262L16.871 9.68233V16.0376L13.3281 12.8262Z" fill="#808080"/>
</svg>
