<svg width="18" height="18" viewBox="0 0 18 18" fill="none" xmlns="http://www.w3.org/2000/svg">
<path d="M10.0789 14.25L5.87573 10.1667V9H8.06323C8.61532 9 9.09198 8.8322 9.49323 8.49658C9.89448 8.16097 10.1366 7.74545 10.2195 7.25H5.25073V6.08333H10.032C9.8549 5.74306 9.59178 5.46345 9.24261 5.2445C8.89344 5.02556 8.50032 4.91628 8.06323 4.91667H5.25073V3.75H12.7507V4.91667H10.7195C10.8653 5.08195 10.9955 5.26181 11.1101 5.45625C11.2247 5.6507 11.3132 5.85972 11.3757 6.08333H12.7507V7.25H11.4851C11.4018 8.07639 11.0372 8.7692 10.3914 9.32842C9.74553 9.88764 8.96948 10.1671 8.06323 10.1667H7.61011L11.8132 14.25H10.0789Z" fill="#808080"/>
<path d="M8.9625 18C9.135 18 9.2925 17.985 9.4575 17.9775L6.6 15.1125L5.6025 16.1175C3.15 14.9475 1.395 12.57 1.125 9.75H0C0.3825 14.37 4.245 18 8.9625 18ZM9.0375 0C8.865 0 8.7075 0.015 8.5425 0.03L11.4 2.8875L12.3975 1.89C14.85 3.0525 16.605 5.43 16.875 8.25H18C17.6175 3.63 13.755 0 9.0375 0Z" fill="#808080"/>
</svg>
