<svg width="18" height="14" viewBox="0 0 18 14" fill="none" xmlns="http://www.w3.org/2000/svg">
<path d="M18 1.875V12.125C18 12.6406 17.8236 13.0822 17.4708 13.4497C17.118 13.8172 16.6944 14.0006 16.2 14H1.8C1.305 14 0.881101 13.8162 0.528301 13.4487C0.175501 13.0812 -0.000598472 12.64 1.52801e-06 12.125V1.875C1.52801e-06 1.35938 0.176402 0.917814 0.529201 0.550314C0.882001 0.182814 1.3056 -0.000623408 1.8 1.59168e-06H16.2C16.695 1.59168e-06 17.1189 0.183751 17.4717 0.551251C17.8245 0.918751 18.0006 1.36 18 1.875ZM1.8 3.75H16.2V1.875H1.8V3.75ZM1.8 7.5V12.125H16.2V7.5H1.8Z" fill="#808080"/>
</svg>
