<svg width="61" height="60" viewBox="0 0 61 60" fill="none" xmlns="http://www.w3.org/2000/svg">
<rect x="0.666504" width="60" height="60" rx="30" fill="#884DFF"/>
<path d="M35.2217 29.9982C35.2212 34.9275 34.0388 39.781 31.7788 44.1312C31.6834 44.3204 31.5524 44.4882 31.3933 44.6249C31.2341 44.7616 31.0501 44.8645 30.8519 44.9277C30.6536 44.9908 30.4451 45.013 30.2385 44.9927C30.0318 44.9725 29.8312 44.9104 29.6481 44.81C29.4651 44.7095 29.3033 44.5728 29.1723 44.4077C29.0412 44.2426 28.9434 44.0524 28.8846 43.8482C28.8258 43.644 28.8072 43.4299 28.8297 43.2183C28.8523 43.0066 28.9157 42.8017 29.0161 42.6154C31.0336 38.7317 32.0886 34.3987 32.0882 29.9982C32.0882 29.714 31.9782 29.4415 31.7823 29.2406C31.5864 29.0397 31.3208 28.9269 31.0437 28.9269C30.7667 28.9269 30.5011 29.0397 30.3052 29.2406C30.1093 29.4415 29.9993 29.714 29.9993 29.9982C29.9993 30.4243 29.8342 30.8331 29.5404 31.1344C29.2466 31.4358 28.8481 31.6051 28.4325 31.6051C28.017 31.6051 27.6185 31.4358 27.3247 31.1344C27.0309 30.8331 26.8658 30.4243 26.8658 29.9982C26.8658 28.8617 27.306 27.7717 28.0895 26.9681C28.873 26.1644 29.9357 25.713 31.0437 25.713C32.1518 25.713 33.2145 26.1644 33.998 26.9681C34.7815 27.7717 35.2217 28.8617 35.2217 29.9982ZM31.0437 20.3565C30.6282 20.3565 30.2297 20.5258 29.9359 20.8271C29.6421 21.1285 29.477 21.5372 29.477 21.9634C29.477 22.3896 29.6421 22.7984 29.9359 23.0997C30.2297 23.4011 30.6282 23.5704 31.0437 23.5704C32.7053 23.5721 34.2983 24.2499 35.4732 25.455C36.6481 26.66 37.3089 28.2939 37.3106 29.9982C37.3106 31.0186 37.2636 32.0497 37.1709 33.0607C37.1506 33.2713 37.171 33.4839 37.231 33.6864C37.291 33.8889 37.3894 34.0772 37.5205 34.2406C37.6516 34.404 37.8129 34.5392 37.9952 34.6384C38.1774 34.7377 38.3769 34.799 38.5823 34.819H38.7311C39.1207 34.8184 39.4962 34.669 39.7842 34.3999C40.0721 34.1307 40.252 33.7612 40.2887 33.3634C40.3919 32.2519 40.4428 31.119 40.4428 29.9982C40.44 27.4421 39.4489 24.9916 37.6869 23.1841C35.9249 21.3766 33.5358 20.3597 31.0437 20.3565ZM26.8658 25.2081C27.1644 24.9211 27.3417 24.5255 27.3597 24.1062C27.3776 23.6868 27.2349 23.2769 26.962 22.964C26.689 22.6512 26.3076 22.4604 25.8993 22.4323C25.4909 22.4042 25.088 22.5411 24.7769 22.8138C23.7919 23.7184 23.0039 24.8258 22.464 26.0636C21.9241 27.3015 21.6445 28.6421 21.6434 29.9982C21.6441 32.7334 20.9646 35.4237 19.6693 37.8146C19.4669 38.1875 19.4173 38.6276 19.5312 39.0381C19.6452 39.4486 19.9135 39.7958 20.2771 40.0034C20.6407 40.211 21.0698 40.2619 21.47 40.145C21.8702 40.0281 22.2087 39.753 22.4111 39.38C23.9647 36.51 24.7789 33.2809 24.7769 29.9982C24.7776 29.0941 24.9641 28.2003 25.324 27.375C25.6839 26.5497 26.2092 25.8114 26.8658 25.2081ZM28.1845 33.7919C27.9842 33.7429 27.7765 33.7348 27.5732 33.7682C27.3699 33.8016 27.175 33.8758 26.9997 33.9865C26.8244 34.0971 26.672 34.2422 26.5514 34.4133C26.4307 34.5844 26.3441 34.7782 26.2966 34.9837C25.794 37.1507 24.9621 39.2231 23.8316 41.1249C23.6155 41.4889 23.5493 41.9261 23.6475 42.3402C23.7457 42.7544 24.0002 43.1115 24.3551 43.3331C24.7101 43.5547 25.1363 43.6227 25.54 43.522C25.9438 43.4213 26.292 43.1602 26.5081 42.7961C27.8091 40.6071 28.7669 38.2221 29.3465 35.7283C29.3942 35.5228 29.4021 35.3098 29.3695 35.1013C29.337 34.8928 29.2647 34.6929 29.1568 34.5131C29.0488 34.3332 28.9074 34.177 28.7406 34.0532C28.5738 33.9295 28.3848 33.8407 28.1845 33.7919ZM38.2024 37.0151C38.0031 36.9619 37.7956 36.9495 37.5917 36.9786C37.3878 37.0077 37.1915 37.0777 37.014 37.1847C36.8364 37.2916 36.6812 37.4334 36.5572 37.6019C36.4331 37.7704 36.3427 37.9624 36.291 38.1668C36.0016 39.2954 35.653 40.4072 35.2465 41.4972C35.0982 41.895 35.1099 42.3369 35.279 42.7258C35.4482 43.1148 35.761 43.4189 36.1487 43.5715C36.3272 43.6427 36.5172 43.6791 36.7088 43.6786C37.0259 43.6787 37.3357 43.58 37.597 43.3957C37.8583 43.2113 38.059 42.95 38.1723 42.6462C38.6204 41.4471 39.0036 40.2235 39.32 38.981C39.3727 38.7766 39.3856 38.5636 39.358 38.3541C39.3304 38.1446 39.2627 37.9428 39.1589 37.7602C39.0551 37.5776 38.9171 37.4178 38.753 37.2899C38.5889 37.1621 38.4017 37.0687 38.2024 37.0151ZM31.0437 15C27.1794 15.0042 23.4735 16.5754 20.7342 19.371C17.9949 22.1666 16.4444 25.9597 16.421 29.9232V29.9995C16.4212 31.2713 16.2002 32.5328 15.7682 33.7249C15.695 33.9231 15.6607 34.1342 15.6673 34.3461C15.674 34.5579 15.7214 34.7664 15.8069 34.9593C15.8924 35.1523 16.0143 35.326 16.1655 35.4704C16.3168 35.6149 16.4944 35.7272 16.6881 35.801C16.8819 35.8747 17.0879 35.9084 17.2944 35.9001C17.5009 35.8919 17.7038 35.8418 17.8913 35.7527C18.0789 35.6637 18.2474 35.5375 18.3872 35.3814C18.5269 35.2253 18.6352 35.0423 18.7058 34.8431C19.2592 33.3174 19.5465 31.7037 19.5544 30.0758V29.9995C19.5458 26.8741 20.748 23.8732 22.8965 21.657C25.045 19.4407 27.964 18.1906 31.0111 18.1818C34.0583 18.1729 36.9841 19.4059 39.1448 21.6096C41.3056 23.8133 42.5244 26.8072 42.5331 29.9325V29.9995C42.5338 32.7641 42.2387 35.5205 41.6531 38.219C41.5624 38.6349 41.6365 39.0707 41.859 39.4306C42.0816 39.7905 42.4344 40.0449 42.8399 40.138C42.9535 40.1638 43.0695 40.1764 43.1859 40.1755C43.5417 40.1752 43.8868 40.0506 44.1645 39.8223C44.4421 39.594 44.6357 39.2756 44.7134 38.9194C45.3435 36.0145 45.6631 33.0478 45.6665 30.0718V29.9995C45.6624 26.0229 44.1205 22.2104 41.3791 19.3984C38.6377 16.5864 34.9208 15.0046 31.0437 15Z" fill="white"/>
</svg>
