<svg width="24" height="24" viewBox="0 0 24 24" fill="none" xmlns="http://www.w3.org/2000/svg">
<path d="M13.9675 0L12.7636 1.26131L14.5471 3.12993C14.7924 3.4219 14.915 3.76058 14.915 4.14599C14.915 4.53139 14.7924 4.89343 14.5471 5.15036L10.5899 9.36642L11.7046 10.6277L15.751 6.41168C16.3418 5.72263 16.6317 4.9635 16.6317 4.14599C16.6317 3.32847 16.3418 2.55766 15.751 1.86861L13.9675 0ZM9.53089 2.35912L8.32699 3.62044L9.00697 4.27445C9.25221 4.53139 9.37482 4.88175 9.37482 5.31387C9.37482 5.74599 9.25221 6.09635 9.00697 6.35328L8.32699 7.0073L9.53089 8.26861L10.1551 7.55621C10.7459 6.86715 11.0469 6.11971 11.0469 5.31387C11.0469 4.47299 10.7459 3.71387 10.1551 3.01314L9.53089 2.35912ZM21.1797 4.21606C20.4106 4.21606 19.6972 4.53139 19.0395 5.15036L12.7636 11.7372L13.9675 12.9051L20.1876 6.41168C20.4663 6.11971 20.8007 5.96788 21.1797 5.96788C21.5588 5.96788 21.8932 6.11971 22.1719 6.41168L22.8518 7.12409L24 5.86277L23.3758 5.15036C22.7181 4.53139 21.9823 4.21606 21.1797 4.21606ZM5.57362 7.64964L0 24L15.6061 18.1606L5.57362 7.64964ZM18.9503 11.2234C18.17 11.2234 17.4566 11.5387 16.7877 12.1577L15.0153 14.0146L16.2192 15.2759L17.9916 13.419C18.2703 13.127 18.5824 12.9752 18.9503 12.9752C19.3182 12.9752 19.6526 13.127 19.9313 13.419L21.7371 15.2759L22.9076 14.073L21.124 12.1577C20.4663 11.5387 19.7306 11.2234 18.9503 11.2234Z" fill="#2D4040"/>
</svg>
