<svg width="60" height="60" viewBox="0 0 60 60" fill="none" xmlns="http://www.w3.org/2000/svg">
<rect width="60" height="60" rx="30" fill="#FF3333"/>
<path d="M15.9785 17.9527C16.6041 17.3431 17.4527 17.0004 18.3378 17H25.0134C26.0625 17 27.0543 17.4829 27.6837 18.3L29.4003 20.5286C29.4447 20.5862 29.5023 20.633 29.5685 20.6653C29.6347 20.6975 29.7077 20.7143 29.7817 20.7143H39.7952C40.301 20.7143 40.7862 20.9099 41.1439 21.2582C41.5015 21.6065 41.7025 22.0789 41.7025 22.5714V23.5H20.2451C19.8657 23.5 19.5019 23.6467 19.2336 23.908C18.9654 24.1692 18.8146 24.5234 18.8146 24.8929C18.8146 25.2623 18.9654 25.6165 19.2336 25.8778C19.5019 26.139 19.8657 26.2857 20.2451 26.2857H43.091C43.3605 26.2855 43.6269 26.3408 43.8728 26.4482C44.1187 26.5555 44.3384 26.7123 44.5175 26.9083C44.6966 27.1043 44.8311 27.335 44.912 27.5852C44.9929 27.8355 45.0184 28.0996 44.9869 28.3601L43.6098 39.75C43.6098 40.612 43.2582 41.4386 42.6322 42.0481C42.0062 42.6576 41.1572 43 40.272 43H18.3378C17.4526 43 16.6036 42.6576 15.9776 42.0481C15.3517 41.4386 15 40.612 15 39.75V20.25C15 19.3883 15.3509 18.56 15.9785 17.9527Z" fill="white"/>
</svg>
