<svg width="18" height="18" viewBox="0 0 18 18" fill="none" xmlns="http://www.w3.org/2000/svg">
<path d="M9 0C7.8181 0 6.64778 0.232792 5.55585 0.685084C4.46392 1.13738 3.47177 1.80031 2.63604 2.63604C0.948211 4.32387 0 6.61305 0 9C0 11.3869 0.948211 13.6761 2.63604 15.364C3.47177 16.1997 4.46392 16.8626 5.55585 17.3149C6.64778 17.7672 7.8181 18 9 18C11.3869 18 13.6761 17.0518 15.364 15.364C17.0518 13.6761 18 11.3869 18 9H16.2C16.2 10.9096 15.4414 12.7409 14.0912 14.0912C12.7409 15.4414 10.9096 16.2 9 16.2C7.09044 16.2 5.25909 15.4414 3.90883 14.0912C2.55857 12.7409 1.8 10.9096 1.8 9C1.8 7.09044 2.55857 5.25909 3.90883 3.90883C5.25909 2.55857 7.09044 1.8 9 1.8V0ZM15.102 0.9C14.94 0.901367 14.785 0.965959 14.67 1.08L13.572 2.169L15.822 4.419L16.92 3.33C17.154 3.096 17.154 2.7 16.92 2.475L15.525 1.08C15.408 0.963 15.255 0.9 15.102 0.9ZM12.933 2.808L6.3 9.45V11.7H8.55L15.183 5.058L12.933 2.808Z" fill="#04B0A8"/>
</svg>
