<svg width="61" height="60" viewBox="0 0 61 60" fill="none" xmlns="http://www.w3.org/2000/svg">
<rect x="0.333496" width="60" height="60" rx="30" fill="#33BBFF"/>
<path fill-rule="evenodd" clip-rule="evenodd" d="M20.8683 15H33.6451C33.8309 15 33.9959 15.0909 34.0984 15.2317L41.1992 23.7261C41.2851 23.8291 41.3323 23.9596 41.3323 24.0945L41.3335 43.445C41.3335 43.8691 41.1592 44.258 40.8813 44.5395L40.879 44.5419C40.6011 44.8234 40.2173 45 39.7987 45H20.8683C20.4503 45 20.0653 44.8246 19.7868 44.5425L19.7845 44.5401C19.5072 44.2585 19.3335 43.8708 19.3335 43.445V16.5551C19.3335 16.1286 19.506 15.7403 19.7839 15.4587L19.7862 15.4564C20.0641 15.1748 20.4474 15 20.8683 15ZM32.9509 15.955H33.5281L40.4083 24.2306V24.5045C31.8058 24.792 32.372 24.1467 32.9509 15.955Z" fill="white"/>
</svg>
