<svg width="24" height="24" viewBox="0 0 24 24" fill="none" xmlns="http://www.w3.org/2000/svg">
<path d="M6.67996 9.21231H5.90919C4.85737 9.1733 3.80896 9.35652 2.82902 9.75058C1.84908 10.1446 0.958527 10.7411 0.212624 11.5031L0 11.7576V20.4272H3.61462V15.0119L4.10188 14.4483L4.32337 14.1847C5.47679 12.9689 6.91276 12.0742 8.49612 11.5849C7.70339 10.966 7.07817 10.1492 6.67996 9.21231Z" fill="#2D4040"/>
<path d="M23.814 11.4758C23.0681 10.7139 22.1775 10.1174 21.1976 9.72331C20.2176 9.32925 19.1692 9.14603 18.1174 9.18504C17.7948 9.18598 17.4725 9.20418 17.1517 9.23958C16.746 10.1185 16.1379 10.8829 15.3798 11.4667C17.0702 11.9465 18.6014 12.8892 19.8095 14.1938L20.031 14.4483L20.5094 15.0119V20.4363H24V11.7303L23.814 11.4758Z" fill="#2D4040"/>
<path d="M5.88261 7.4397H6.15725C6.02965 6.31544 6.2219 5.17733 6.71081 4.16272C7.19973 3.14811 7.96439 2.30039 8.91251 1.72189C8.56883 1.18315 8.09468 0.745229 7.53648 0.451011C6.97829 0.156794 6.3552 0.0163646 5.72823 0.0434749C5.10125 0.0705852 4.49188 0.264305 3.9598 0.605666C3.42771 0.947027 2.99114 1.42433 2.69285 1.99082C2.39456 2.55732 2.24476 3.19359 2.25813 3.83734C2.27151 4.48109 2.44759 5.11024 2.76913 5.66318C3.09068 6.21612 3.54667 6.6739 4.09244 6.99169C4.63822 7.30948 5.25508 7.47638 5.88261 7.47606V7.4397Z" fill="#2D4040"/>
<path d="M17.6921 6.75792C17.7029 6.96685 17.7029 7.17622 17.6921 7.38516C17.8622 7.41281 18.0339 7.428 18.206 7.43061H18.3743C18.9991 7.39642 19.6046 7.19683 20.1319 6.85126C20.6591 6.50569 21.0902 6.02592 21.3832 5.45866C21.6761 4.8914 21.8209 4.25597 21.8034 3.61425C21.786 2.97252 21.6069 2.34637 21.2836 1.79675C20.9603 1.24713 20.5038 0.792767 19.9586 0.477902C19.4133 0.163036 18.7979 -0.00160318 18.1723 1.17672e-05C17.5466 0.00162672 16.932 0.169441 16.3883 0.487117C15.8446 0.804793 15.3904 1.26151 15.0698 1.81279C15.8716 2.34997 16.531 3.08298 16.9887 3.94608C17.4463 4.80917 17.6881 5.77534 17.6921 6.75792Z" fill="#2D4040"/>
<path d="M11.8804 10.8304C14.0675 10.8304 15.8405 9.01115 15.8405 6.76701C15.8405 4.52287 14.0675 2.70364 11.8804 2.70364C9.69328 2.70364 7.92027 4.52287 7.92027 6.76701C7.92027 9.01115 9.69328 10.8304 11.8804 10.8304Z" fill="#2D4040"/>
<path d="M12.093 12.9939C10.936 12.946 9.78155 13.1387 8.69904 13.5605C7.61653 13.9823 6.62837 14.6244 5.79402 15.4483L5.57254 15.7028V22.5998C5.57599 22.7873 5.6154 22.9722 5.68852 23.1439C5.76163 23.3157 5.86701 23.4711 5.99865 23.6011C6.13028 23.7311 6.28559 23.8332 6.45569 23.9016C6.6258 23.97 6.80737 24.0034 6.99003 23.9997H17.1694C17.3521 24.0034 17.5337 23.97 17.7038 23.9016C17.8739 23.8332 18.0292 23.7311 18.1608 23.6011C18.2925 23.4711 18.3978 23.3157 18.471 23.1439C18.5441 22.9722 18.5835 22.7873 18.5869 22.5998V15.721L18.3743 15.4483C17.5454 14.6219 16.5606 13.9779 15.4805 13.5559C14.4004 13.1338 13.2477 12.9426 12.093 12.9939Z" fill="#2D4040"/>
</svg>
