<svg width="1920" height="1046" viewBox="0 0 1920 1046" fill="none" xmlns="http://www.w3.org/2000/svg">
<g opacity="0.5">
<path d="M0 3C0 3 367.993 6.66611 526.96 137.009C684.64 266.296 569.901 469.742 729.883 596.647C876.363 712.842 1041.13 631.833 1206.57 724.394C1340.17 799.14 1351.99 922.748 1496.79 977.383C1649.54 1035.02 1920 977.383 1920 977.383" stroke="#884CFF" stroke-width="5"/>
<path d="M0 23C0 23 367.993 26.6661 526.96 157.009C684.64 286.296 569.901 489.742 729.883 616.647C876.363 732.842 1041.13 651.833 1206.57 744.394C1340.17 819.14 1351.99 942.748 1496.79 997.383C1649.54 1055.02 1920 997.383 1920 997.383" stroke="#33BBFF" stroke-width="5"/>
<path d="M0 43C0 43 367.993 46.6661 526.96 177.009C684.64 306.296 569.901 509.742 729.883 636.647C876.363 752.842 1041.13 671.833 1206.57 764.394C1340.17 839.14 1351.99 962.748 1496.79 1017.38C1649.54 1075.02 1920 1017.38 1920 1017.38" stroke="#FFC34C" stroke-width="5"/>
</g>
</svg>
