<svg width="550" height="550" viewBox="0 0 550 550" fill="none" xmlns="http://www.w3.org/2000/svg">
<path d="M469.333 95.6559C448.691 95.6559 431.958 78.9183 431.958 58.2722C431.958 37.626 448.691 20.8885 469.333 20.8885C489.976 20.8885 506.71 37.626 506.71 58.2722C506.71 78.9183 489.976 95.6559 469.333 95.6559ZM517.976 45.6667C516.794 41.0889 514.98 36.765 512.637 32.7887L518.073 24.611L510.53 17.0679L502.988 9.52478L494.812 14.9607C490.836 12.617 486.515 10.8026 481.936 9.61996L480 0H469.333H458.667L456.732 9.61996C452.153 10.8026 447.832 12.617 443.856 14.9607L435.68 9.52478L428.138 17.0679L420.595 24.611L426.031 32.7887C423.688 36.765 421.874 41.0889 420.692 45.6667L411.073 47.6037V58.2722V68.9407L420.692 70.8762C421.874 75.4554 423.688 79.7793 426.031 83.7542L420.595 91.9319L428.138 99.4764L435.68 107.02L443.856 101.582C447.832 103.926 452.153 105.74 456.732 106.924L458.667 116.543H469.333H480L481.936 106.924C486.515 105.74 490.836 103.926 494.812 101.582L502.988 107.02L510.53 99.4764L518.073 91.9319L512.637 83.7542C514.98 79.7793 516.794 75.4554 517.976 70.8762L527.594 68.9407V58.2722V47.6037L517.976 45.6667Z" fill="#73C0FF"/>
<path d="M510.23 157.103C500.766 157.103 493.093 149.43 493.093 139.965C493.093 130.501 500.766 122.826 510.23 122.826C519.694 122.826 527.365 130.501 527.365 139.965C527.365 149.43 519.694 157.103 510.23 157.103ZM532.529 134.187C531.987 132.087 531.155 130.105 530.08 128.282L532.574 124.534L529.116 121.075L525.658 117.617L521.91 120.109C520.087 119.034 518.106 118.204 516.006 117.661L515.12 113.251H510.23H505.34L504.45 117.661C502.352 118.204 500.371 119.034 498.55 120.109L494.8 117.617L491.344 121.075L487.885 124.534L490.378 128.282C489.303 130.105 488.471 132.087 487.928 134.187L483.521 135.074V139.965V144.855L487.928 145.744C488.471 147.842 489.303 149.824 490.378 151.647L487.885 155.397L491.344 158.854L494.8 162.314L498.55 159.82C500.371 160.895 502.352 161.727 504.45 162.269L505.34 166.678H510.23H515.12L516.006 162.269C518.106 161.727 520.087 160.895 521.91 159.82L525.658 162.314L529.116 158.854L532.574 155.397L530.08 151.647C531.155 149.824 531.987 147.842 532.529 145.744L536.938 144.855V139.965V135.074L532.529 134.187Z" fill="#73C0FF"/>
<path d="M254.441 495.316H306.914V335.906H254.441V495.316Z" fill="#4DA8F2"/>
<path d="M77.1684 412.695H484.184C496.912 412.695 507.228 402.375 507.228 389.645V116.042C507.228 103.312 496.912 92.9926 484.184 92.9926H77.1684C64.4413 92.9926 54.1238 103.312 54.1238 116.042V389.645C54.1238 402.375 64.4413 412.695 77.1684 412.695Z" fill="#B5DEFF"/>
<path d="M266.063 385.52C266.063 393.593 272.605 400.139 280.679 400.139C288.751 400.139 295.294 393.593 295.294 385.52C295.294 377.446 288.751 370.901 280.679 370.901C272.605 370.901 266.063 377.446 266.063 385.52Z" fill="#4DA8F2"/>
<path d="M398.711 501.333H162.642V489.299H398.711V501.333Z" fill="#B5DEFF"/>
<path d="M71.8684 362.594H489.484V58.9651H71.8684V362.594Z" fill="white"/>
<mask id="mask0_285_3291" style="mask-type:luminance" maskUnits="userSpaceOnUse" x="71" y="58" width="419" height="38">
<path d="M71.8652 95.6376H489.481V58.965H71.8652V95.6376Z" fill="white"/>
</mask>
<g mask="url(#mask0_285_3291)">
<path d="M71.8652 95.6376H489.481V58.965H71.8652V95.6376Z" fill="url(#paint0_linear_285_3291)"/>
</g>
<path d="M212.825 132.589H337.556C340.359 132.589 342.629 130.317 342.629 127.516V126.794C342.629 123.993 340.359 121.721 337.556 121.721H212.825C210.025 121.721 207.754 123.993 207.754 126.794V127.516C207.754 130.317 210.025 132.589 212.825 132.589Z" fill="#DFE1E8"/>
<path d="M212.825 152.188H337.556C340.359 152.188 342.629 149.916 342.629 147.114V146.393C342.629 143.592 340.359 141.32 337.556 141.32H212.825C210.025 141.32 207.754 143.592 207.754 146.393V147.114C207.754 149.916 210.025 152.188 212.825 152.188Z" fill="#DFE1E8"/>
<path d="M212.825 171.787H337.556C340.359 171.787 342.629 169.515 342.629 166.714V165.993C342.629 163.191 340.359 160.919 337.556 160.919H212.825C210.025 160.919 207.754 163.191 207.754 165.993V166.714C207.754 169.515 210.025 171.787 212.825 171.787Z" fill="#DFE1E8"/>
<path d="M114.874 201.602C103.458 201.602 94.1698 210.893 94.1698 222.313V317.553C94.1698 328.973 103.458 338.263 114.874 338.263H271.418C282.834 338.263 292.122 328.973 292.122 317.553V222.313C292.122 210.893 282.834 201.602 271.418 201.602H114.874ZM271.418 341.231H114.874C101.822 341.231 91.2021 330.61 91.2021 317.553V222.313C91.2021 209.256 101.822 198.635 114.874 198.635H271.418C284.471 198.635 295.09 209.256 295.09 222.313V317.553C295.09 330.61 284.471 341.231 271.418 341.231Z" fill="#DFE1E8"/>
<path d="M127.257 234.529H259.035C264.809 234.529 269.49 229.847 269.49 224.072V222.082C269.49 216.307 264.809 211.625 259.035 211.625H127.257C121.483 211.625 116.802 216.307 116.802 222.082V224.072C116.802 229.847 121.483 234.529 127.257 234.529Z" fill="#DFE1E8"/>
<path d="M442.517 229.926C442.517 242.44 435.757 253.372 425.689 259.274C423.666 260.456 421.508 261.44 419.246 262.19C419.043 262.259 418.836 262.326 418.632 262.389C415.442 263.38 412.052 263.912 408.538 263.912C403.111 263.912 397.984 262.641 393.433 260.38C382.246 254.817 374.555 243.27 374.555 229.926C374.555 211.157 389.77 195.939 408.538 195.939C427.304 195.939 442.517 211.157 442.517 229.926Z" fill="#EEF0F7"/>
<path d="M400.421 226.339C400.421 226.339 398.101 211.321 410.537 211.598C422.972 211.875 422.805 219.301 422.583 226.671C422.362 234.041 417.597 233.487 422.972 243.74C428.345 253.992 418.318 253.992 418.318 253.992L410.537 243.296L400.421 226.339Z" fill="#3C4145"/>
<path d="M409.177 213.039C409.177 213.039 400.754 214.369 400.422 226.34C400.091 238.309 402.695 240.859 410.064 238.365C417.433 235.871 419.76 223.347 419.926 221.407C420.094 219.467 420.536 211.598 409.177 213.039Z" fill="#EEA886"/>
<path d="M423.964 254.673C423.99 258.258 422.072 260.657 419.248 262.19C419.044 262.259 418.838 262.326 418.633 262.389C415.444 263.38 412.053 263.912 408.539 263.912C403.113 263.912 397.985 262.641 393.434 260.38C392.409 258.336 393.894 255.434 396.908 250.981C398.976 247.92 401.006 244.795 404.479 243.276C409.599 242.46 415.022 242.411 418.841 244.57C421.886 246.292 423.915 249.416 423.964 254.673Z" fill="#E55353"/>
<path d="M398.556 250.8L394.684 256.904C394.693 256.871 394.951 255.946 395.389 253.269C395.471 252.762 395.562 252.191 395.657 251.55C395.685 251.361 395.725 251.172 395.779 250.988V250.986C397.437 247.166 402.605 244.323 402.793 244.228L398.556 250.8Z" fill="#E55353"/>
<path d="M425.691 259.274C423.667 260.456 421.51 261.44 419.247 262.19C419.044 262.259 418.838 262.326 418.633 262.389C417.774 260.171 417.029 258.253 416.867 257.755C416.82 257.612 416.709 257.341 416.558 256.978C415.86 255.28 414.297 251.507 414.278 248.553C414.266 246.651 414.894 245.089 416.809 244.646C417.565 244.472 418.238 244.46 418.841 244.57C420.981 244.958 422.228 246.879 422.923 248.582C422.936 248.613 422.946 248.64 422.956 248.669C423.538 250.117 423.719 251.383 423.719 251.383C423.719 251.383 423.754 251.517 423.816 251.758C423.936 252.233 424.165 253.134 424.463 254.317C424.804 255.674 425.233 257.397 425.691 259.274Z" fill="#EEA886"/>
<path d="M414.8 232.972C414.069 234.351 413.299 242.911 413.299 242.911C413.299 242.911 402.996 246.805 404.052 244.601C404.529 243.602 404.669 242.305 404.679 241.188C404.689 240.305 404.616 239.535 404.565 239.108C404.538 238.883 404.518 238.753 404.518 238.753C404.518 238.753 415.529 231.594 414.8 232.972Z" fill="#EEA886"/>
<path d="M405.741 221.629C405.741 221.629 410.063 228.666 413.997 231.438C417.932 234.208 415.937 236.425 415.937 236.425C415.937 236.425 426.201 214.811 416.441 213.316C406.683 211.82 400.698 211.709 400.421 226.339C400.421 226.339 404.854 221.518 405.741 221.629Z" fill="#3C4145"/>
<path d="M410.439 238.226C408.858 240.559 404.68 241.187 404.68 241.187C404.68 241.187 404.68 241.187 404.679 241.187C404.689 240.305 404.615 239.535 404.565 239.108C407.247 239.625 410.439 238.226 410.439 238.226Z" fill="#A77860"/>
<path d="M404.478 243.276C404.478 243.276 399.624 250.741 401.267 251.392C402.911 252.045 411.804 250.522 415.587 243.432C415.587 243.432 409.932 240.531 404.478 243.276Z" fill="#EEA886"/>
<path d="M455.072 130.77C455.072 141.607 451.177 151.529 444.713 159.22C443.198 161.019 441.547 162.695 439.771 164.231C439.265 164.668 438.746 165.098 438.219 165.51C437.624 165.982 437.017 166.435 436.398 166.876C430.578 171.001 423.717 173.754 416.289 174.663C414.981 174.824 413.653 174.927 412.311 174.97C411.829 174.986 411.345 174.993 410.859 174.993C409.428 174.993 408.014 174.925 406.619 174.792C405.06 174.644 403.525 174.416 402.018 174.107C395.32 172.749 389.171 169.876 383.945 165.858C382.368 164.648 380.877 163.335 379.482 161.926C379.21 161.653 378.941 161.375 378.678 161.094C377.685 160.047 376.751 158.951 375.871 157.81C370.085 150.333 366.643 140.954 366.643 130.77C366.643 106.347 386.44 86.5456 410.859 86.5456C435.278 86.5456 455.072 106.347 455.072 130.77Z" fill="#EEF0F7"/>
<path d="M439.656 155.172L436.394 166.876C430.574 171.001 423.713 173.754 416.285 174.663C414.977 174.824 413.649 174.927 412.307 174.97C411.825 174.986 411.341 174.993 410.855 174.993C409.424 174.993 408.01 174.925 406.615 174.792C405.056 174.644 403.521 174.416 402.014 174.107C395.316 172.749 389.167 169.876 383.941 165.858C383.317 161.988 382.645 157.706 382.053 153.701C385.304 152.491 395.646 148.973 402.174 146.765C402.265 146.733 402.357 146.704 402.445 146.674C402.589 146.623 402.73 146.576 402.869 146.531C403.257 146.4 403.626 146.274 403.978 146.156C404.335 146.035 404.676 145.921 404.993 145.811C406.33 145.361 407.273 145.044 407.609 144.933C407.612 144.93 407.612 144.93 407.614 144.93C407.702 144.9 407.747 144.884 407.747 144.884L407.823 144.888L416.601 145.546L418.072 145.656L418.532 145.69C418.532 145.69 418.598 145.706 418.731 145.741C419.26 145.875 420.799 146.279 422.835 146.9C422.838 146.9 422.842 146.902 422.845 146.902C428.042 148.494 436.476 151.516 439.656 155.172Z" fill="#D9C7C1"/>
<path d="M413.159 108.811C413.159 108.811 423.686 110.588 421.901 127.071C420.114 143.554 410.825 142.1 410.2 142.077C409.58 142.054 400.856 142.276 400.395 122.122C400.395 122.122 400.262 107.221 413.159 108.811Z" fill="#EEA987"/>
<path d="M417.769 137.299C417.769 137.299 417.407 144.082 418.047 145.559C418.689 147.036 409.594 151.708 403.944 146.387C403.944 146.387 405.086 138.971 404.731 136.353C404.376 133.734 417.769 137.299 417.769 137.299Z" fill="#EEA987"/>
<path d="M422.115 122.412C422.115 122.412 423.283 121.19 423.693 122.444C424.102 123.699 421.826 129.254 421.968 129.505C421.968 129.505 421.753 129.987 421.479 129.717C421.203 129.447 422.115 122.412 422.115 122.412Z" fill="#EEA987"/>
<path d="M400.514 121.968C400.514 121.968 399.396 120.7 398.936 121.936C398.475 123.171 400.158 128.719 400.368 129.061C400.368 129.061 400.73 129.631 401.016 129.372C401.3 129.114 400.514 121.968 400.514 121.968Z" fill="#EEA987"/>
<path d="M422.788 121.012C422.424 123.267 422.083 124.943 422.083 124.943L420.55 126.944C420.55 126.944 420.641 122.519 420.406 121.824C420.318 121.56 420.214 121.094 420.106 120.589C419.929 119.755 419.75 118.814 419.626 118.501C419.43 117.999 410.605 115.421 402.743 119.042C402.743 119.042 402.811 119.722 402.805 120.481C402.804 121.365 402.707 122.353 402.302 122.503C401.548 122.778 401.862 127.681 401.862 127.681L400.636 126.267C400.636 126.267 400.282 123.706 399.934 120.762C399.934 120.762 399.933 120.755 399.931 120.741C399.852 120.054 399.771 119.349 399.695 118.648C399.519 115.687 399.812 110.31 403.668 107.153C406.269 106.038 410.422 105.092 417.343 107.212C417.343 107.212 418.933 107.317 419.378 107.747C423.69 112.492 422.788 121.012 422.788 121.012Z" fill="#E8734D"/>
<path d="M405.455 139.874C405.455 139.874 407.135 142.207 411.039 142.119C414.943 142.031 416.637 139.995 416.637 139.995C416.637 139.995 414.79 143.862 411.022 143.82C407.251 143.779 405.455 139.874 405.455 139.874Z" fill="#C78D71"/>
<path d="M402.871 146.528C402.871 146.528 405.691 151.441 411.044 151.904C414.442 152.197 417.381 147.894 418.758 145.78C418.758 145.78 411.154 142.525 402.871 146.528Z" fill="#EEA987"/>
<path d="M417.784 144.226C417.784 144.226 415.632 147.046 411.045 150.063L413.898 154.458L418.76 145.78L417.784 144.226Z" fill="#EDDAD3"/>
<path d="M404.161 144.884C404.161 144.884 406.899 148.317 411.047 150.063L407.917 154.591L402.448 146.673L404.161 144.884Z" fill="#EDDAD3"/>
<path d="M411.046 150.063L413.491 153.783C413.491 153.783 410.925 155.234 408.538 153.691L411.046 150.063Z" fill="#5073AB"/>
<path d="M442.482 154.481C442.482 154.481 442.457 154.565 442.411 154.725C442.143 155.679 441.112 159.35 439.769 164.231C439.263 164.668 438.744 165.097 438.218 165.51C437.622 165.982 437.015 166.434 436.396 166.876C430.576 171.001 423.715 173.754 416.288 174.663C416.942 159.354 418.759 145.78 418.759 145.78C420.193 146.156 421.551 146.531 422.837 146.9C422.84 146.9 422.844 146.902 422.847 146.902C434.066 150.122 439.755 152.949 441.696 154.022C441.711 154.028 441.726 154.038 441.737 154.045C442.245 154.328 442.482 154.481 442.482 154.481Z" fill="#323657"/>
<path d="M402.016 174.107C395.317 172.749 389.169 169.876 383.943 165.858C382.365 164.648 380.874 163.335 379.48 161.926C379.207 161.653 378.939 161.375 378.675 161.094C377.901 157.807 377.386 155.661 377.353 155.522L377.352 155.515C377.352 155.515 382.823 151.919 402.176 146.753C402.176 146.753 402.176 146.759 402.176 146.765C402.176 147.208 402.187 159.626 402.016 174.107Z" fill="#323657"/>
<path d="M412.446 154.191C412.266 158.222 412.247 166.045 412.309 174.97C411.827 174.986 411.343 174.993 410.857 174.993C409.426 174.993 408.011 174.925 406.616 174.792C407.467 163.785 408.901 156.903 409.554 154.18C409.768 153.287 409.899 152.843 409.899 152.843L412.494 153.271C412.475 153.552 412.461 153.858 412.446 154.191Z" fill="#5073AB"/>
<path d="M444.711 159.22C443.197 161.019 441.546 162.695 439.769 164.231C439.262 164.668 438.743 165.098 438.217 165.51L441.696 154.022L441.697 154.018C441.711 154.027 441.726 154.034 441.737 154.045C441.952 154.184 442.174 154.413 442.411 154.725C443.095 155.617 443.876 157.185 444.711 159.22Z" fill="#323657"/>
<path d="M379.482 161.926C379.209 161.653 378.941 161.375 378.677 161.094C377.684 160.047 376.75 158.951 375.87 157.81C376.368 156.615 376.867 155.814 377.353 155.515L377.354 155.522L379.482 161.926Z" fill="#323657"/>
<path d="M143.894 84.2307H94.2917C91.5403 84.2307 89.3096 82.001 89.3096 79.2491V75.355C89.3096 72.6031 91.5403 70.3719 94.2917 70.3719H143.894C146.645 70.3719 148.874 72.6031 148.874 75.355V79.2491C148.874 82.001 146.645 84.2307 143.894 84.2307Z" fill="#F5F7FF"/>
<path d="M101.667 147.603C101.755 140.749 105.05 134.686 110.105 130.826C113.79 128.01 118.402 126.362 123.393 126.426C132.569 126.543 140.322 132.407 143.281 140.552L143.287 140.563C143.989 142.501 144.421 144.567 144.537 146.719C144.562 147.193 144.569 147.672 144.566 148.155C144.503 153.006 142.834 157.456 140.077 161.013C136.096 166.149 129.839 169.422 122.844 169.331C120.529 169.3 118.312 168.907 116.237 168.204C107.667 165.307 101.545 157.143 101.667 147.603ZM113.942 174.989C116.707 175.926 119.669 176.45 122.749 176.49C132.081 176.61 140.429 172.248 145.739 165.402C149.42 160.654 151.644 154.715 151.723 148.246C151.731 147.604 151.719 146.962 151.685 146.331C151.533 143.456 150.954 140.696 150.013 138.105C146.067 127.244 135.724 119.424 123.487 119.265C116.893 119.18 110.794 121.332 105.908 125.02C99.0811 130.167 94.6268 138.303 94.51 147.512C94.347 160.231 102.509 171.121 113.942 174.989Z" fill="#78C2FF"/>
<path d="M140.078 161.014L145.738 165.4C140.428 172.248 132.082 176.61 122.749 176.49C119.669 176.451 116.709 175.926 113.941 174.989L116.239 168.206C118.314 168.907 120.533 169.3 122.841 169.329C129.838 169.42 136.095 166.149 140.078 161.014Z" fill="#1A598C"/>
<path d="M144.537 146.717L151.688 146.329C151.721 146.962 151.735 147.603 151.725 148.246C151.643 154.715 149.421 160.654 145.739 165.4L140.079 161.014C142.838 157.456 144.503 153.004 144.567 148.155C144.573 147.672 144.562 147.192 144.537 146.717Z" fill="#2273B5"/>
<path d="M144.54 146.719C144.423 144.567 143.992 142.501 143.289 140.563L143.284 140.552L150.015 138.105C150.957 140.696 151.535 143.456 151.688 146.331L144.54 146.719Z" fill="#2273B5"/>
<path d="M105.907 125.02C110.794 121.332 116.892 119.18 123.487 119.265C135.724 119.424 146.067 127.244 150.012 138.105L143.287 140.563L143.281 140.552C140.322 132.407 132.568 126.543 123.393 126.426C118.402 126.362 113.789 128.01 110.105 130.826L105.907 125.02Z" fill="#4DA8F2"/>
<path d="M335.958 231.995H317.426C313.743 231.995 310.756 229.008 310.756 225.324V206.788C310.756 203.104 313.743 200.117 317.426 200.117H335.958C339.643 200.117 342.627 203.104 342.627 206.788V225.324C342.627 229.008 339.643 231.995 335.958 231.995Z" fill="#78C2FF"/>
<path d="M325.682 223.077L317.623 216.052C316.963 215.475 316.894 214.472 317.471 213.812C318.046 213.151 319.048 213.083 319.709 213.659L325.406 218.626L333.531 209.563C334.118 208.909 335.122 208.856 335.773 209.44C336.427 210.026 336.48 211.03 335.895 211.683L325.682 223.077Z" fill="#F3F3F3"/>
<path d="M335.958 272.841H317.426C313.743 272.841 310.756 269.856 310.756 266.171V247.636C310.756 243.952 313.743 240.966 317.426 240.966H335.958C339.643 240.966 342.627 243.952 342.627 247.636V266.171C342.627 269.856 339.643 272.841 335.958 272.841Z" fill="#78C2FF"/>
<path d="M325.682 263.925L317.623 256.9C316.963 256.323 316.894 255.32 317.471 254.66C318.046 253.999 319.048 253.93 319.709 254.505L325.406 259.474L333.531 250.411C334.118 249.757 335.122 249.703 335.773 250.288C336.427 250.872 336.48 251.876 335.895 252.53L325.682 263.925Z" fill="#F3F3F3"/>
<path d="M335.958 313.689H317.426C313.743 313.689 310.756 310.702 310.756 307.019V288.484C310.756 284.799 313.743 281.814 317.426 281.814H335.958C339.643 281.814 342.627 284.799 342.627 288.484V307.019C342.627 310.702 339.643 313.689 335.958 313.689Z" fill="#78C2FF"/>
<path d="M179.835 150.748H172.502V174.792H179.835V150.748Z" fill="#78C2FF"/>
<path d="M442.517 310.922C442.517 329.621 427.369 344.907 408.538 344.907C389.735 344.907 374.555 329.657 374.555 310.922C374.555 292.15 389.77 276.933 408.538 276.933C427.304 276.933 442.517 292.15 442.517 310.922Z" fill="#EEF0F7"/>
<path d="M167.82 157.492H160.487V174.792H167.82V157.492Z" fill="#78C2FF"/>
<path d="M191.853 139.605H184.521V174.792H191.853V139.605Z" fill="#78C2FF"/>
<path d="M507.561 383.937C507.566 383.934 507.575 383.932 507.581 383.934C507.493 383.974 507.48 383.976 507.561 383.937Z" fill="#323657"/>
<path d="M408.537 324.472C407.592 324.472 406.825 323.705 406.825 322.758V299.081C406.825 298.136 407.592 297.37 408.537 297.37C409.483 297.37 410.249 298.136 410.249 299.081V322.758C410.249 323.705 409.483 324.472 408.537 324.472Z" fill="#949494"/>
<path d="M420.374 312.632H396.701C395.755 312.632 394.989 311.865 394.989 310.919C394.989 309.974 395.755 309.208 396.701 309.208H420.374C421.32 309.208 422.084 309.974 422.084 310.919C422.084 311.865 421.32 312.632 420.374 312.632Z" fill="#949494"/>
<path d="M255.446 523.681C255.446 523.681 256.408 530.143 257.053 532.897C257.697 535.654 263.654 543.556 263.549 544.902C263.444 546.245 260.923 547.829 259.655 546.746C258.388 545.665 249.969 537.014 248.171 533.308C246.372 529.603 240.419 524.772 239.811 523.126C239.202 521.48 246.832 516.667 248.796 515.9C250.761 515.132 255.446 523.681 255.446 523.681Z" fill="#1D2033"/>
<path d="M240.53 408.728C240.53 408.728 241.317 412.848 241.897 413.61C242.476 414.371 244.043 418.202 244.2 418.741C244.358 419.279 245.322 423.149 245.485 423.638C245.648 424.128 244.547 424.891 243.794 423.857C243.326 423.215 242.505 420.712 242.172 419.902C241.838 419.095 240.812 416.538 240.535 417.003C240.259 417.471 240.325 420.899 240.279 421.782C240.234 422.663 240.794 425.376 241.056 426.498C241.318 427.621 242.812 432.328 242.213 432.581C241.614 432.835 241.108 432.766 240.335 431.503C240.335 431.503 239.111 432.188 238.397 430.637C238.397 430.637 237.301 431.035 236.623 429.015C236.623 429.015 235.844 428.588 235.542 427.864C235.24 427.14 233.465 420.948 233.481 418.421C233.497 415.897 234.089 414.136 233.981 412.355C233.873 410.571 232.96 406.759 232.96 406.759L240.53 408.728Z" fill="#EEA886"/>
<path d="M251.088 514.888L248.795 515.9L255.446 523.681L257.65 521.242L251.088 514.888Z" fill="#50558A"/>
<path d="M274.332 531.193C274.332 531.193 272.852 534.762 271.603 536.176C270.356 537.592 265.577 540.12 265.551 544.321C265.524 548.878 273.608 547.612 276.769 547.447C279.93 547.278 280.169 544.845 281.5 542.266C282.833 539.687 284.174 540.124 284.423 538.042C284.673 535.963 283.404 531.305 283.404 531.305L274.332 531.193Z" fill="#1D2033"/>
<path d="M274.195 529.874L273.964 532.036C273.964 532.036 278.936 533.823 283.638 532.222L283.375 529.269L274.195 529.874Z" fill="#50558A"/>
<path d="M276.95 470.917C276.811 463.377 273.456 421.117 273.811 421.117C275.462 421.117 284.759 461.36 285.103 467.024C285.176 468.184 283.725 470.779 281.382 474.194C280.328 475.732 279.092 477.433 277.733 479.246L277.731 479.248C277.269 475.106 276.971 472.059 276.95 470.917ZM301.772 474.974C301.772 469.358 297.672 420.351 297.858 418.479C297.982 417.257 296.678 405.524 295.756 397.51C295.748 397.44 295.74 397.371 295.731 397.305C295.731 397.287 295.727 397.272 295.727 397.256C295.466 395.004 295.239 393.063 295.086 391.761C295.016 391.158 294.961 390.691 294.926 390.395C294.896 390.15 294.882 390.02 294.882 390.02C294.882 390.02 268.437 384.805 254.726 389.731C254.154 389.939 253.604 390.161 253.08 390.403C253.08 390.403 253.046 390.637 252.986 391.076C252.849 392.09 252.562 394.204 252.181 397.077C252.116 397.561 252.048 398.066 251.978 398.593C250.027 413.369 251.28 429.427 254.696 445.866C258.047 461.992 259.892 474.053 260.236 476.395C260.692 479.468 262.036 487.923 263.524 497.195C256.246 506.173 250.041 513.808 250.504 514.566C251.653 516.442 261.864 527.017 262.427 525.145C262.427 525.145 264.271 523.057 267.159 519.728C268.078 525.4 268.706 529.27 268.706 529.27C268.706 529.27 279.899 531.944 284.019 529.509C284.019 529.509 282.4 517.208 280.711 503.833C290.987 491.528 301.772 477.916 301.772 474.974Z" fill="#292C47"/>
<path d="M306.189 319.923L299.078 345.439C298.834 346.266 298.543 347.284 298.233 348.47L298.222 348.514C298.217 348.524 298.214 348.534 298.213 348.545C297.026 353.093 295.558 360.026 295.121 367.73C294.824 372.981 295.798 394.093 295.798 394.093C295.798 394.093 285.036 398.108 268.935 397.091C268.935 397.091 251.616 396.686 253.028 386.065C256.765 357.955 253.11 346.365 252.621 343.543C252.621 343.543 250.271 329.889 248.588 318.449C253.46 316.634 274.28 309.633 274.28 309.633L285.065 310.441C285.065 310.441 301.455 314.477 306.189 319.923Z" fill="#D9C7C1"/>
<path d="M279.688 273.561C279.688 273.561 290.216 275.338 288.429 291.82C286.644 308.305 277.353 306.85 276.73 306.827C276.109 306.804 267.385 307.026 266.925 286.872C266.925 286.872 266.791 271.971 279.688 273.561Z" fill="#EEA987"/>
<path d="M284.302 302.049C284.302 302.049 283.938 308.833 284.579 310.31C285.22 311.785 276.127 316.457 270.475 311.136C270.475 311.136 271.619 303.72 271.264 301.101C270.908 298.483 284.302 302.049 284.302 302.049Z" fill="#EEA987"/>
<path d="M288.643 287.161C288.643 287.161 289.811 285.941 290.221 287.193C290.63 288.448 288.354 294.003 288.497 294.254C288.497 294.254 288.281 294.738 288.005 294.468C287.731 294.198 288.643 287.161 288.643 287.161Z" fill="#EEA987"/>
<path d="M267.045 286.717C267.045 286.717 265.928 285.449 265.466 286.685C265.005 287.92 266.689 293.468 266.898 293.81C266.898 293.81 267.262 294.38 267.546 294.122C267.831 293.864 267.045 286.717 267.045 286.717Z" fill="#EEA987"/>
<path d="M289.319 285.761C288.956 288.017 288.613 289.693 288.613 289.693L287.081 291.695C287.081 291.695 287.172 287.27 286.937 286.574C286.849 286.31 286.744 285.843 286.637 285.338C286.461 284.505 286.282 283.563 286.158 283.25C285.961 282.75 277.136 280.171 269.275 283.791C269.275 283.791 269.343 284.472 269.337 285.232C269.335 286.114 269.238 287.104 268.833 287.252C268.08 287.528 268.394 292.432 268.394 292.432L267.169 291.017C267.169 291.017 266.814 288.455 266.465 285.511C266.465 285.511 266.463 285.506 266.463 285.491C266.384 284.805 266.303 284.098 266.226 283.399C266.051 280.436 266.344 275.061 270.198 271.902C272.8 270.787 276.953 269.841 283.876 271.961C283.876 271.961 285.463 272.068 285.909 272.496C290.22 277.243 289.319 285.761 289.319 285.761Z" fill="#E8734D"/>
<path d="M271.983 304.623C271.983 304.623 273.663 306.958 277.567 306.868C281.471 306.78 283.164 304.745 283.164 304.745C283.164 304.745 281.317 308.611 277.548 308.57C273.779 308.529 271.983 304.623 271.983 304.623Z" fill="#C78D71"/>
<path d="M269.403 311.279C269.403 311.279 272.225 316.192 277.578 316.653C280.973 316.947 283.913 312.644 285.29 310.529C285.29 310.529 277.688 307.274 269.403 311.279Z" fill="#EEA987"/>
<path d="M284.314 308.976C284.314 308.976 282.162 311.797 277.577 314.814L280.428 319.207L285.29 310.529L284.314 308.976Z" fill="#EDDAD3"/>
<path d="M270.691 309.633C270.691 309.633 273.429 313.067 277.578 314.814L274.449 319.338L268.978 311.422L270.691 309.633Z" fill="#EDDAD3"/>
<path d="M277.577 314.814L280.02 318.532C280.02 318.532 277.454 319.983 275.069 318.439L277.577 314.814Z" fill="#5073AB"/>
<path d="M252.435 399.004C252.435 399.004 265.644 403.877 295.513 399.285L295.117 393.877C295.117 393.877 277.803 398.987 252.963 394.611L252.435 399.004Z" fill="#1D2033"/>
<path d="M285.289 310.529C285.289 310.529 282.202 333.605 282.624 353.509C283.047 373.414 298.078 409.558 298.078 409.558C298.078 409.558 304.648 403.204 307.508 399.605C307.508 399.605 297.279 370.086 297.467 364.761C297.654 359.437 309.01 319.23 309.01 319.23C309.01 319.23 302.7 315.114 285.289 310.529Z" fill="#323657"/>
<path d="M268.707 311.504C268.707 311.504 268.731 333.605 268.307 353.509C267.885 373.414 265.263 410.467 265.263 410.467C265.263 410.467 250.552 408.138 247.693 404.539C247.693 404.539 253.652 370.086 253.465 364.761C253.277 359.436 243.883 320.266 243.883 320.266C243.883 320.266 249.351 316.669 268.707 311.504Z" fill="#323657"/>
<path d="M278.567 401.578H270.453V395.542H278.567V401.578Z" fill="#3A4066"/>
<path d="M276.431 317.592C276.431 317.592 272.803 329.965 272.488 354.541C272.172 379.116 272.933 386.163 272.933 386.163L275.763 391.762L279.535 385.919C279.535 385.919 278.326 329.369 279.025 318.022L276.431 317.592Z" fill="#5073AB"/>
<path d="M297.258 409.767C297.258 409.767 298.145 409.176 298.389 408.756C298.389 408.756 298.763 407.96 299.069 407.408C299.167 407.235 299.258 407.083 299.327 406.993C299.617 406.607 300.387 405.839 300.788 404.747C301.189 403.658 301.524 398.581 301.524 398.581L298.412 397.667L295.641 396.448C295.641 396.448 289.577 401.098 289.068 402.079C289.019 402.174 288.975 402.269 288.942 402.364C288.603 403.228 288.77 403.993 288.652 404.463C288.61 404.634 288.324 406.38 288.732 406.766C289.299 407.303 289.945 407.474 290.515 407.391C290.515 407.391 291.677 408.399 292.782 408.49C292.782 408.49 293.82 409.45 295.236 409.224C295.236 409.224 296.414 410.093 297.258 409.767Z" fill="#EEA886"/>
<path d="M293.286 395.889C293.286 395.889 297.494 399.598 303.39 401.578C303.39 401.578 322.938 369.719 323.185 367.421C323.414 365.294 313.487 321.972 309.007 319.23L300.873 343.057C301.412 342.898 310.132 361.156 310.165 363.504C310.212 366.651 293.286 395.889 293.286 395.889Z" fill="#323657"/>
<path d="M242.83 413.037C242.83 413.037 238.438 413.855 232.083 413.496C232.083 413.496 234.559 372.602 234.312 370.301C234.083 368.175 239.402 323.008 243.882 320.266L251.871 344.34C251.331 344.183 246.515 368.969 246.482 371.317C246.434 374.464 242.83 413.037 242.83 413.037Z" fill="#323657"/>
<path d="M288.172 400.414L300.733 406.931L295.795 416.073L285.105 404.64L288.172 400.414Z" fill="#292C47"/>
<path d="M281.38 474.194L280.111 499.056L277.731 479.248V479.246C279.09 477.433 280.326 475.732 281.38 474.194Z" fill="#1D2033"/>
<path d="M467.093 545.736H462.96V418.411H467.093V545.736Z" fill="#706865"/>
<path d="M308.723 418.411H490.327V411.172H308.723V418.411Z" fill="#B59074"/>
<path d="M331.956 545.736H336.087V418.411H331.956V545.736Z" fill="#706865"/>
<path d="M426.257 408.325H473.412V411.126H426.257V408.325Z" fill="#E2D2CA"/>
<path d="M411.042 411.126H423.454V373.418H411.042V411.126Z" fill="#4667A8"/>
<path d="M369.112 391.583H465.385C468.396 391.583 470.837 389.143 470.837 386.132V321.414C470.837 318.403 468.396 315.961 465.385 315.961H369.112C366.1 315.961 363.66 318.403 363.66 321.414V386.132C363.66 389.143 366.1 391.583 369.112 391.583Z" fill="#5F8BE3"/>
<path d="M367.858 379.732H466.641V320.048H367.858V379.732Z" fill="#F5F7FF"/>
<path d="M367.858 324.798H466.641V320.048H367.858V324.798Z" fill="#CECFD6"/>
<path d="M374.884 376.056H380.046C381.911 376.056 383.421 374.546 383.421 372.683V331.747C383.421 329.883 381.911 328.372 380.046 328.372H374.884C373.02 328.372 371.51 329.883 371.51 331.747V372.683C371.51 374.546 373.02 376.056 374.884 376.056Z" fill="#CECFD6"/>
<path d="M443.94 332.788H462.021C463.029 332.788 463.844 331.973 463.844 330.968V330.193C463.844 329.187 463.029 328.372 462.021 328.372H443.94C442.934 328.372 442.119 329.187 442.119 330.193V330.968C442.119 331.973 442.934 332.788 443.94 332.788Z" fill="#CECFD6"/>
<path d="M445.881 377.275H460.08C462.158 377.275 463.844 375.59 463.844 373.512V339.513C463.844 337.435 462.158 335.75 460.08 335.75H445.881C443.803 335.75 442.119 337.435 442.119 339.513V373.512C442.119 375.59 443.803 377.275 445.881 377.275Z" fill="#CECFD6"/>
<path d="M413.791 385.305C413.791 387.216 415.338 388.764 417.249 388.764C419.159 388.764 420.706 387.216 420.706 385.305C420.706 383.396 419.159 381.848 417.249 381.848C415.338 381.848 413.791 383.396 413.791 385.305Z" fill="#5C5552"/>
<path d="M395.06 411.269V409.925C395.06 409.925 396.95 401.554 410.33 401.554C423.709 401.554 423.44 411.269 423.44 411.269H395.06Z" fill="#2E436E"/>
<path d="M418.683 344.443C418.683 347.863 417.452 350.994 415.413 353.421C414.934 353.988 414.414 354.519 413.853 355.002C413.694 355.14 413.531 355.276 413.364 355.407C413.175 355.554 412.985 355.697 412.79 355.838C410.951 357.139 408.787 358.009 406.444 358.295C406.03 358.345 405.612 358.377 405.188 358.391C405.036 358.396 404.883 358.398 404.731 358.398C404.279 358.398 403.832 358.375 403.392 358.335C402.899 358.289 402.416 358.215 401.939 358.12C399.828 357.69 397.887 356.783 396.236 355.515C395.74 355.133 395.268 354.719 394.83 354.275C394.743 354.19 394.658 354.102 394.576 354.012C394.263 353.682 393.966 353.336 393.689 352.975C391.864 350.617 390.778 347.658 390.778 344.443C390.778 336.737 397.023 330.489 404.731 330.489C412.435 330.489 418.683 336.737 418.683 344.443Z" fill="#EEF0F7"/>
<path d="M413.818 352.143L412.79 355.838C410.951 357.139 408.787 358.009 406.443 358.295C406.029 358.345 405.611 358.377 405.187 358.391C405.036 358.396 404.883 358.398 404.73 358.398C404.279 358.398 403.832 358.375 403.392 358.335C402.899 358.289 402.415 358.215 401.938 358.12C399.827 357.69 397.886 356.783 396.235 355.515C396.039 354.295 395.827 352.944 395.641 351.68C396.666 351.297 399.931 350.188 401.992 349.491C402.019 349.481 402.048 349.472 402.075 349.464C402.121 349.446 402.166 349.432 402.209 349.417C402.332 349.376 402.449 349.337 402.558 349.299C402.671 349.26 402.779 349.224 402.88 349.19C403.302 349.048 403.599 348.947 403.705 348.913C403.705 348.913 403.706 348.911 403.708 348.911C403.735 348.903 403.749 348.897 403.749 348.897L403.772 348.898L406.543 349.106L407.007 349.14L407.153 349.152C407.153 349.152 407.173 349.158 407.216 349.168C407.382 349.211 407.868 349.338 408.51 349.534C408.511 349.534 408.513 349.536 408.513 349.536C410.155 350.036 412.814 350.989 413.818 352.143Z" fill="#D9C7C1"/>
<path d="M405.454 337.514C405.454 337.514 408.776 338.075 408.212 343.277C407.648 348.477 404.716 348.018 404.518 348.012C404.325 348.004 401.57 348.074 401.424 341.714C401.424 341.714 401.382 337.012 405.454 337.514Z" fill="#EEA987"/>
<path d="M406.911 346.504C406.911 346.504 406.797 348.644 406.998 349.111C407.201 349.577 404.331 351.05 402.547 349.371C402.547 349.371 402.907 347.03 402.795 346.205C402.684 345.379 406.911 346.504 406.911 346.504Z" fill="#EEA987"/>
<path d="M408.28 341.806C408.28 341.806 408.649 341.421 408.779 341.816C408.906 342.212 408.189 343.965 408.234 344.045C408.234 344.045 408.166 344.196 408.079 344.111C407.993 344.026 408.28 341.806 408.28 341.806Z" fill="#EEA987"/>
<path d="M401.463 341.666C401.463 341.666 401.111 341.265 400.967 341.656C400.821 342.046 401.352 343.797 401.419 343.903C401.419 343.903 401.532 344.084 401.623 344.003C401.713 343.921 401.463 341.666 401.463 341.666Z" fill="#EEA987"/>
<path d="M408.493 341.365C408.378 342.076 408.271 342.604 408.271 342.604L407.788 343.236C407.788 343.236 407.817 341.841 407.742 341.62C407.714 341.538 407.681 341.39 407.646 341.231C407.592 340.967 407.535 340.671 407.496 340.572C407.434 340.413 404.648 339.601 402.169 340.742C402.169 340.742 402.187 340.957 402.187 341.196C402.186 341.476 402.156 341.788 402.027 341.835C401.791 341.922 401.889 343.469 401.889 343.469L401.504 343.022C401.504 343.022 401.391 342.215 401.28 341.286C401.28 341.286 401.28 341.283 401.28 341.278C401.256 341.062 401.23 340.839 401.205 340.618C401.15 339.685 401.243 337.987 402.459 336.989C403.279 336.639 404.59 336.34 406.775 337.009C406.775 337.009 407.277 337.041 407.417 337.178C408.779 338.675 408.493 341.365 408.493 341.365Z" fill="#E8734D"/>
<path d="M403.023 347.317C403.023 347.317 403.555 348.051 404.785 348.025C406.018 347.997 406.553 347.355 406.553 347.355C406.553 347.355 405.969 348.575 404.779 348.562C403.591 348.548 403.023 347.317 403.023 347.317Z" fill="#C78D71"/>
<path d="M402.208 349.417C402.208 349.417 403.097 350.968 404.788 351.112C405.859 351.206 406.788 349.847 407.222 349.181C407.222 349.181 404.821 348.154 402.208 349.417Z" fill="#EEA987"/>
<path d="M406.916 348.69C406.916 348.69 406.236 349.579 404.79 350.532L405.69 351.918L407.224 349.181L406.916 348.69Z" fill="#EDDAD3"/>
<path d="M402.616 348.897C402.616 348.897 403.481 349.98 404.79 350.532L403.802 351.96L402.075 349.462L402.616 348.897Z" fill="#EDDAD3"/>
<path d="M404.789 350.532L405.561 351.705C405.561 351.705 404.751 352.163 403.997 351.676L404.789 350.532Z" fill="#5073AB"/>
<path d="M414.71 351.927C414.697 351.973 413.868 354.954 413.854 355.002C413.695 355.14 413.532 355.276 413.365 355.407C413.176 355.554 412.985 355.697 412.791 355.838C410.952 357.139 408.787 358.009 406.444 358.295C406.65 353.463 407.224 349.181 407.224 349.181C407.677 349.299 408.105 349.417 408.511 349.534C408.512 349.534 408.513 349.536 408.513 349.536C409.993 349.96 413.385 351.054 414.71 351.927Z" fill="#323657"/>
<path d="M401.938 358.12C399.826 357.69 397.885 356.783 396.233 355.515C395.737 355.133 395.266 354.719 394.827 354.275C394.741 354.19 394.655 354.102 394.573 354.012C394.328 352.975 394.167 352.299 394.155 352.254V352.251C394.155 352.251 395.88 351.116 401.991 349.486C401.991 349.486 401.991 349.488 401.991 349.491C401.991 349.631 401.994 353.549 401.938 358.12Z" fill="#323657"/>
<path d="M405.23 351.835C405.174 353.105 405.168 355.574 405.186 358.391C405.034 358.396 404.881 358.398 404.729 358.398C404.277 358.398 403.83 358.375 403.39 358.335C403.66 354.862 404.111 352.69 404.317 351.83C404.385 351.549 404.426 351.408 404.426 351.408L405.245 351.543C405.239 351.633 405.235 351.729 405.23 351.835Z" fill="#5073AB"/>
<path d="M415.414 353.421C414.935 353.988 414.414 354.519 413.853 355.002C413.695 355.14 413.532 355.276 413.364 355.407C413.364 355.404 414.708 351.928 414.71 351.927C415.06 352.126 415.261 353.05 415.414 353.421Z" fill="#323657"/>
<path d="M394.826 354.275C394.74 354.19 394.655 354.102 394.573 354.012C394.26 353.682 393.962 353.336 393.686 352.975C393.843 352.6 394 352.347 394.154 352.251V352.254L394.826 354.275Z" fill="#323657"/>
<path d="M525.181 367.353C525.181 367.353 527.167 395.214 521.724 398.548C518.316 400.637 504.722 407.681 505.124 409.002C505.527 410.323 512.8 420.756 512.8 420.756C512.8 420.756 538.912 403.56 539.754 398.14C540.576 392.845 538.468 357.348 534.88 355.713C532.192 354.487 530.772 355.501 527.386 358.016C522.63 361.548 525.181 367.353 525.181 367.353Z" fill="#FFC05C"/>
<path d="M493.056 528.353C493.056 528.353 493.867 533.989 493.97 534.836C494.071 535.682 503.002 534.337 503.002 534.337L503.725 527.626C503.725 527.626 494.172 527.557 493.056 528.353Z" fill="#424773"/>
<path d="M493.874 534.119C493.874 534.119 491.044 537.517 488.307 538.997C485.571 540.477 481.27 541.064 479.651 542.597C478.483 543.703 475.397 548.464 486.764 548.368C498.13 548.272 503.609 549.041 504.828 547.215C506.046 545.39 503.066 533.737 503.066 533.737C503.066 533.737 500.374 534.706 493.874 534.119Z" fill="#292C47"/>
<path d="M435.834 528.406C435.834 528.406 436.646 534.043 436.747 534.888C436.848 535.736 445.78 534.39 445.78 534.39L446.504 527.679C446.504 527.679 436.951 527.61 435.834 528.406Z" fill="#424773"/>
<path d="M436.655 534.172C436.655 534.172 433.825 537.57 431.086 539.05C428.351 540.53 418.28 541.747 416.661 543.28C415.494 544.384 413.55 548.839 429.543 548.422C440.906 548.126 446.392 549.094 447.607 547.268C448.827 545.444 445.847 533.791 445.847 533.791C445.847 533.791 443.31 534.826 436.655 534.172Z" fill="#292C47"/>
<path d="M521.863 430.979C521.863 430.979 489.392 436.474 482.059 437.625C474.725 438.778 434.961 448.675 429.989 451.69C426.03 454.09 432.064 511.742 433.474 533.737H449.136L450.272 467.757C469.067 468.229 482.479 463.361 496.165 465.439C509.851 467.518 521.262 470.473 529.958 458.805C529.958 458.805 530.28 433.526 521.863 430.979Z" fill="#292C47"/>
<path d="M489.857 533.791L505.121 532.846L506.607 467.757C514.7 467.961 517.473 467.447 524.022 466.654L536.343 438.002C525.544 440.162 490.94 448.891 486.326 451.69C482.367 454.092 488.448 511.796 489.857 533.791Z" fill="#292C47"/>
<path d="M506.917 309.246C506.917 309.246 495.015 305.956 490.472 315.198C485.933 324.44 487.991 341.961 493.99 343.608C499.99 345.258 508.614 343.358 511.106 337.606C513.595 331.855 515.582 323.681 514.986 318.388C514.391 313.095 510.079 310.51 506.917 309.246Z" fill="#EEA886"/>
<path d="M497.1 341.765C497.1 341.765 497.231 348.793 496.456 350.291C495.681 351.79 513.032 351.412 513.032 351.412C513.032 351.412 510.298 342.973 511.848 335.782C513.384 328.666 497.1 341.765 497.1 341.765Z" fill="#EEA886"/>
<path d="M512.782 333.122C512.782 333.122 511.855 335.006 507.365 334.702C502.874 334.397 496.951 328.98 495.046 328.496C493.138 328.012 493.026 326.926 493.026 326.926L492.016 328.719L490.064 329.018C490.064 329.018 491.39 323.586 488.498 321.674C485.605 319.761 489.8 304.361 504.443 308.076C504.443 308.076 515.619 310.121 515.769 316.365C515.919 322.605 514.953 329.815 512.782 333.122Z" fill="#3A3F47"/>
<path d="M495.544 350.111C495.544 350.111 495.593 347.248 496.89 346.973C498.189 346.699 510.529 345.001 512.121 345.627L512.804 349.407C512.804 349.407 509.736 351.296 495.544 350.111Z" fill="#E2D2CA"/>
<path d="M491.973 325.646C492.305 323.299 494.973 320.605 496.502 324.26C498.03 327.913 495.471 333.238 493.756 332.952C492.043 332.665 491.522 328.829 491.973 325.646Z" fill="#EEA886"/>
<path d="M510.388 310.921C510.388 310.921 524.903 310.239 512.92 332.897L510.388 310.921Z" fill="#3A3F47"/>
<path d="M423.606 402.797C423.606 402.797 420.697 402.571 419.633 401.929C418.569 401.286 412.197 397.001 410.701 397.686C409.205 398.372 399.245 401.424 399.591 402.881C399.937 404.338 400.857 404.196 401.561 403.938C402.263 403.681 409.496 402.163 410.133 402.419C410.133 402.419 403.03 405.01 403.003 406.902C402.972 408.794 404.488 409.253 405.161 409.968C405.835 410.684 406.644 412.46 408.475 412.595C410.305 412.732 419.238 409.625 421.075 409.482C422.914 409.339 426.318 409.596 426.549 409.296C426.781 408.996 423.606 402.797 423.606 402.797Z" fill="#EEA886"/>
<path d="M476.518 354.079C485.786 352.449 495.541 350.111 495.541 350.111L512.8 349.407C512.8 349.407 528.642 352.895 534.88 355.713C535.471 355.98 535.474 369.848 537.098 373.483L531.927 384.397C531.927 384.397 528.938 406.016 528.318 415.631C528.034 420.044 529.124 458.288 529.124 458.288C529.124 458.288 527.572 459.053 515.794 460.353C504.014 461.651 474.581 459.882 474.395 458.493C474.211 457.1 480.096 406.675 480.357 404.063C480.756 400.057 479.199 381.537 479.199 381.537C476.98 384.518 471.323 397.984 465.423 404.391C461.955 408.16 444.775 410.471 441.538 410.58C434.491 410.815 421.633 412.218 421.256 411.532C420.958 411.121 420.137 400.117 420.942 399.848C421.648 399.613 445.524 398.238 451.641 394.992C453.879 393.805 460.568 379.215 460.568 379.215C460.568 379.215 471.406 356.376 476.518 354.079Z" fill="#FFC05C"/>
<path d="M542.721 541.511L541.641 544.548L496.025 530.414L498.212 524.261L542.721 541.511Z" fill="#918783"/>
<path d="M494.462 528.249H499.647V478.645H494.462V528.249Z" fill="#918783"/>
<path d="M481.76 478.932H512.341V476.009H481.76V478.932Z" fill="#5E5854"/>
<path d="M450.984 541.511L452.064 544.548L497.68 530.414L495.676 523.876L450.984 541.511Z" fill="#918783"/>
<path d="M483.124 544.225V547.757L497.681 530.414L495.676 523.876L483.124 544.225Z" fill="#918783"/>
<path d="M446.721 545.736C446.721 548.092 448.631 550 450.984 550C453.339 550 455.248 548.092 455.248 545.736C455.248 543.382 453.339 541.473 450.984 541.473C448.631 541.473 446.721 543.382 446.721 545.736Z" fill="#BFB2AC"/>
<path d="M482.76 545.736C482.76 548.092 484.67 550 487.024 550C489.379 550 491.287 548.092 491.287 545.736C491.287 543.382 489.379 541.473 487.024 541.473C484.67 541.473 482.76 543.382 482.76 545.736Z" fill="#BFB2AC"/>
<path d="M538.456 545.736C538.456 548.092 540.366 550 542.721 550C545.075 550 546.983 548.092 546.983 545.736C546.983 543.382 545.075 541.473 542.721 541.473C540.366 541.473 538.456 543.382 538.456 545.736Z" fill="#BFB2AC"/>
<path d="M466.094 476.008H527.611C530.629 476.008 533.075 473.562 533.075 470.544V470.403C533.075 467.386 530.629 464.937 527.611 464.937H466.094C463.076 464.937 460.63 467.386 460.63 470.403V470.544C460.63 473.562 463.076 476.008 466.094 476.008Z" fill="#E2D2CA"/>
<path d="M510.53 457.184H539.505C545.298 457.184 549.997 452.483 549.997 446.69V398.47C549.997 392.675 545.298 387.976 539.505 387.976H510.53C504.734 387.976 500.038 392.675 500.038 398.47V446.69C500.038 452.483 504.734 457.184 510.53 457.184Z" fill="#E2D2CA"/>
<path d="M508.891 473.254C516.257 473.254 522.23 470.78 526.651 465.9C536.638 454.872 534.842 435.483 534.762 434.664C534.609 433.135 533.247 432.019 531.721 432.172C530.195 432.323 529.078 433.683 529.229 435.212C529.251 435.433 530.843 453.005 522.52 462.179C519.154 465.89 514.695 467.694 508.891 467.694C507.357 467.694 506.113 468.938 506.113 470.473C506.113 472.009 507.357 473.254 508.891 473.254Z" fill="#E2D2CA"/>
<path d="M128.263 517.53C128.263 517.53 128.314 520.302 129.212 523.53C129.871 525.897 131.196 535.062 132.888 536.345C134.578 537.626 140.033 541.023 139.231 544.513C138.431 548.004 137.753 550.438 131.864 548.372C125.975 546.303 122.037 545.122 120.905 539.952C119.774 534.782 116.551 530.075 116.551 530.075L112.295 540.665L110.049 539.761C110.049 539.761 113.444 528.323 113.151 527.303C112.86 526.283 114.708 517.196 121.832 514.944C128.954 512.694 128.263 517.53 128.263 517.53Z" fill="#1D3B54"/>
<path d="M167.605 520.872C167.605 520.872 168.685 523.423 170.723 526.082C172.217 528.032 176.864 536.042 178.912 536.6C180.96 537.158 187.287 538.276 187.845 541.812C188.405 545.349 188.683 547.863 182.448 548.142C176.212 548.421 172.119 548.793 169.141 544.419C166.163 540.043 161.418 536.879 161.418 536.879V548.292H158.998C158.998 548.292 157.882 536.415 157.23 535.577C156.578 534.739 154.903 525.618 160.673 520.872C166.443 516.123 167.605 520.872 167.605 520.872Z" fill="#1D3B54"/>
<path d="M104.207 365.772C104.207 365.772 105.593 360.857 105.728 360.215C105.862 359.576 107.175 358.303 108.807 356.973C110.441 355.642 113.241 354.576 113.589 354.684C113.935 354.792 114.336 354.74 114.908 355.476C115.481 356.212 115.559 357.149 115.559 357.149C115.559 357.149 116.691 357.724 116.699 358.887C116.699 358.887 117.741 359.477 117.536 360.798C117.536 360.798 118.535 361.404 118.306 362.35C118.306 362.35 116.994 363.629 116.643 364.241C116.294 364.855 113.383 367.326 110.226 369.264C110.226 369.264 106.195 372.241 104.207 365.772Z" fill="#EEA886"/>
<path d="M110.239 361.877C110.239 361.877 110.836 363.947 110.71 364.613C110.583 365.278 115.435 365.374 115.435 365.374C115.435 365.374 112.773 361.219 110.239 361.877Z" fill="#CF8C6C"/>
<path d="M55.6286 374.224C57.5877 371.053 60.1996 369.624 68.4985 375.365C76.7968 381.104 74.8478 379.98 76.8338 381.801C78.8212 383.618 87.5279 388.171 87.5279 388.171C87.5279 388.171 92.6137 383.115 95.0527 379.52C97.8021 375.472 103.542 364.655 103.542 364.655L111.588 370.646C111.588 370.646 95.9551 398.995 92.6897 401.091C89.4255 403.185 79.5866 399.68 74.4648 397.523C69.3434 395.364 63.9211 392.57 61.5819 391.99C59.2426 391.41 50.5208 382.497 55.6286 374.224Z" fill="#1D3B54"/>
<path d="M112.167 359.37L110.666 359.04L114.58 341.277L116.083 341.609L112.167 359.37Z" fill="#EB4747"/>
<path d="M113.147 355.016C113.147 355.016 109.09 358.49 109.569 359.213C110.046 359.934 110.66 359.91 110.66 359.91L109.639 362.098C109.639 362.098 109.781 363.926 111.732 363.238C111.732 363.238 111.687 364.962 113.491 364.072C113.491 364.072 113.969 365.222 114.879 364.958C115.787 364.694 118.305 362.35 118.305 362.35C118.305 362.35 118.613 361.619 117.535 360.798C117.535 360.798 117.806 359.545 116.698 358.887C116.698 358.887 116.759 357.847 115.558 357.149C115.558 357.149 115.51 354.824 113.588 354.684C113.588 354.684 113.317 354.869 113.147 355.016Z" fill="#DB9C7C"/>
<path d="M105.784 360.269C105.784 360.269 108.501 357.811 110.575 357.119C111.044 356.963 111.527 356.897 111.848 357.275C112.17 357.653 112.035 358.596 110.911 359.721C109.787 360.846 108.851 362.814 108.851 362.814C108.851 362.814 107.359 363.632 105.784 360.269Z" fill="#EEA886"/>
<path d="M94.3124 391.442C94.3124 391.442 95.9468 385.52 94.0218 380.934C94.0218 380.934 94.7542 385.68 92.6753 389.055C91.1693 391.501 94.3124 391.442 94.3124 391.442Z" fill="#152C3D"/>
<path d="M123.96 392.359C123.96 392.359 128.339 359.894 135.978 345.739H124.746C124.746 345.739 112.166 367.91 114.525 390.301L123.96 392.359Z" fill="#EDDAD3"/>
<path d="M126.648 368.054C126.648 368.054 127.93 365.666 128.239 364.886C128.548 364.107 129.807 365.46 129.616 366.461C129.427 367.462 126.648 368.054 126.648 368.054Z" fill="#EEA886"/>
<path d="M136.608 373.483C136.608 373.483 136.268 374.654 135.871 375.092C135.871 375.092 135.087 375.835 134.56 376.399C134.395 376.578 134.253 376.737 134.174 376.849C133.838 377.318 133.242 378.451 132.119 379.354C130.999 380.257 126.714 383.045 126.714 383.045L123.692 379.816L121.272 377.299C121.272 377.299 123.317 369.612 124.265 368.65C124.358 368.555 124.453 368.467 124.55 368.39C125.432 367.653 126.397 367.474 126.903 367.143C127.089 367.02 129.029 365.937 129.646 366.176C130.505 366.508 130.967 367.088 131.099 367.704C131.099 367.704 132.754 368.429 133.304 369.511C133.304 369.511 134.852 370.131 135.155 371.673C135.155 371.673 136.653 372.478 136.608 373.483Z" fill="#EEA886"/>
<path d="M156.492 457.319C156.492 457.319 149.07 474.021 143.772 485.94C142.883 487.946 142.051 489.816 141.326 491.447C140.477 493.359 139.772 494.943 139.286 496.037C135.914 503.624 127.62 520.169 127.62 520.169C127.62 520.169 121.38 520.408 121.018 515.107C121.018 515.107 127.006 503.624 127.006 495.555C127.006 487.485 128.088 463.716 135.796 458.577C145.195 452.312 151.297 451.125 156.492 457.319Z" fill="#EEA886"/>
<path d="M87.8689 425.575C87.8689 425.575 89.4348 427.141 90.7597 427.502C92.0839 427.864 114.242 429.551 124.477 432.923C134.714 436.295 148.322 438.465 150.85 441.355C153.379 444.245 157.594 460.144 157.473 463.155C157.354 466.166 166.47 516.91 167.605 520.872C168.208 522.97 159.361 522.167 159.361 522.167C159.361 522.167 146.791 492.182 144.107 486.642C139.174 476.464 138.928 463.999 137.122 462.07C135.316 460.144 115.205 455.808 103.645 455.808C92.0839 455.808 66.1932 456.771 63.4231 455.205C60.6534 453.639 43.3128 442.197 50.5385 426.9C57.7632 411.605 87.8689 425.575 87.8689 425.575Z" fill="#EEA886"/>
<path d="M137.873 436.529L119.532 471.829C119.532 471.829 114.008 458.73 104.37 456.474C94.7301 454.221 56.2641 455.429 56.2641 455.429C56.2641 455.429 38.613 433.097 53.7288 421.381C68.8444 409.665 86.4965 423.224 86.4965 423.224C86.4965 423.224 90.1438 427.179 91.9074 427.265C104.733 427.904 118.409 430.294 137.873 436.529Z" fill="#1D3B54"/>
<path d="M178.912 536.6C178.912 536.6 173.328 537.997 171.188 536.6C169.048 535.205 161.77 522.904 159.36 522.167C159.36 522.167 161.697 517.428 167.605 520.872C167.605 520.872 177.33 534.553 178.912 536.6Z" fill="#EEA886"/>
<path d="M132.889 536.345C132.889 536.345 127.187 535.555 125.722 533.461C124.257 531.369 122.094 517.24 120.131 515.656C120.131 515.656 124.066 512.13 128.264 517.53C128.264 517.53 132.184 533.852 132.889 536.345Z" fill="#EEA886"/>
<path d="M74.6323 314.719C79.0376 314.505 88.8077 316.722 90.3135 328.397C90.3135 328.397 89.9613 331.544 89.1975 334.019C88.4337 336.491 90.6492 343.784 90.0712 344.144C89.4933 344.502 87.1033 344.963 87.1033 344.963C87.1033 344.963 84.5342 352.929 81.7375 352.861C78.9413 352.792 68.3561 350.607 63.3705 340.696C58.3855 330.786 56.8455 315.58 74.6323 314.719Z" fill="#EEA886"/>
<path d="M77.9634 349.228C77.9634 349.228 77.6198 350.345 77.2288 352.002C77.0288 352.848 76.817 353.835 76.6323 354.886C76.1254 357.792 75.8273 361.19 76.5805 363.452C76.5805 363.452 70.3982 365.594 65.5137 356.855C65.5137 356.855 67.6109 347.44 64.885 341.73C62.1598 336.023 77.9634 349.228 77.9634 349.228Z" fill="#EEA886"/>
<path d="M90.3142 328.397C90.3142 328.397 83.5558 334.465 76.4072 333.985C69.1476 333.496 64.4347 342.571 64.4347 342.571C64.4347 342.571 53.6287 329.006 62.3399 318.04C71.0516 307.07 91.8591 314.788 90.3142 328.397Z" fill="#1D3B54"/>
<path d="M73.1174 333.932C73.079 332.557 71.5501 330.495 69.2989 332.372C67.0463 334.252 70.0745 340.784 71.9196 340.145C73.7653 339.505 73.1579 335.352 73.1174 333.932Z" fill="#EEA886"/>
<path d="M77.2278 352.002C77.0278 352.848 76.8159 353.835 76.6312 354.886C70.89 351.239 68.0002 346.813 68.0002 346.813C71.282 349.781 77.2278 352.002 77.2278 352.002Z" fill="#A77860"/>
<path d="M93.9855 385.4C92.6837 391.432 89.2601 391.748 89.4674 396.205C89.6752 400.66 91.0057 401.042 88.7019 408.069C88.2755 409.368 87.9291 410.784 87.6496 412.23C87.617 412.4 87.5826 412.573 87.5539 412.745C87.4029 413.555 87.2756 414.373 87.1647 415.178C86.9596 416.669 86.812 418.126 86.709 419.455C86.4381 422.923 88.9908 425.599 88.9908 425.599C88.9908 425.599 66.4505 439.106 50.9761 437.211C50.9761 437.211 54.9821 420.368 57.1891 414.582C59.3949 408.797 58.7286 382.063 57.1052 376.327C54.7094 367.861 59.4957 355.168 66.0382 353.513L76.183 358.212C76.183 358.212 86.4014 370.418 88.6939 372.26C90.9843 374.105 95.3069 379.284 93.9855 385.4Z" fill="#1D3B54"/>
<path d="M60.4553 360.686C63.3203 358.3 67.466 354.216 73.5128 362.294C79.5597 370.373 83.9589 375.579 85.2656 377.935C86.5725 380.292 97.9396 396.705 97.9396 396.705C97.9396 396.705 103.978 391.097 107.431 388.467C111.323 385.5 121.931 374.446 121.931 374.446L128.942 382.222C128.942 382.222 104.619 409.215 100.859 410.166C97.098 411.118 86.564 401.638 82.3923 397.963C78.2213 394.289 66.5163 380.911 64.4828 379.617C62.4494 378.325 52.9846 366.909 60.4553 360.686Z" fill="#1D3B54"/>
<path d="M143.774 485.94C142.885 487.946 142.053 489.816 141.328 491.446C138.598 482.667 138.823 467.997 138.823 467.997C140.462 478.225 143.725 485.823 143.774 485.94Z" fill="#A77860"/>
<path d="M114.582 341.277L115.91 338.83L116.084 341.609L114.582 341.277Z" fill="#EEA886"/>
<path d="M89.7566 404.234C89.7566 404.234 89.2529 406.341 88.7156 408.084L76.7024 392.504L89.7566 404.234Z" fill="#152C3D"/>
<path d="M59.6384 332.821C59.6384 332.821 64.3876 345.369 63.0959 348.795C63.0959 348.795 70.5086 345.63 69.1555 337.407C67.8024 329.188 59.6384 332.821 59.6384 332.821Z" fill="#1D3B54"/>
<path d="M76.7706 358.91V356.427L66.2299 351.292L62.583 355.505L76.7706 358.91Z" fill="#1D3B54"/>
<path d="M69.4646 524.926H64.4961V462.218H69.4646V524.926Z" fill="#918783"/>
<path d="M27.1165 455.487H105.239V464.086H27.1165V455.487Z" fill="#B5DEFF"/>
<path d="M67.964 428.002C67.964 428.002 65.9948 435.968 75.2675 437.778C84.5414 439.588 95.945 441.9 95.945 456.209H63.7839L67.964 428.002Z" fill="#B5DEFF"/>
<path d="M27.3114 464.027L0 349.222C0 349.222 49.375 341.506 55.2574 363.683C61.1397 385.86 70.8176 451.733 82.5823 455.807C94.347 459.879 27.3114 464.027 27.3114 464.027Z" fill="#B5DEFF"/>
<path d="M115.195 541.115C115.195 543.371 113.367 545.2 111.112 545.2C108.856 545.2 107.028 543.371 107.028 541.115C107.028 538.858 108.856 537.031 111.112 537.031C113.367 537.031 115.195 538.858 115.195 541.115Z" fill="#BFB2AC"/>
<path d="M23.2256 537.067L24.2598 539.977L67.9609 526.434L65.866 520.542L23.2256 537.067Z" fill="#918783"/>
<path d="M111.113 537.067L110.079 539.977L66.3782 526.434L68.2983 520.172L111.113 537.067Z" fill="#918783"/>
<path d="M80.324 539.666V543.051L66.3782 526.435L68.2984 520.172L80.324 539.666Z" fill="#918783"/>
<path d="M80.6714 541.115C80.6714 543.371 78.8423 545.2 76.5869 545.2C74.3313 545.2 72.5022 543.371 72.5022 541.115C72.5022 538.858 74.3313 537.031 76.5869 537.031C78.8423 537.031 80.6714 538.858 80.6714 541.115Z" fill="#BFB2AC"/>
<path d="M27.3128 541.115C27.3128 543.371 25.4849 545.2 23.2287 545.2C20.9727 545.2 19.1448 543.371 19.1448 541.115C19.1448 538.858 20.9727 537.031 23.2287 537.031C25.4849 537.031 27.3128 538.858 27.3128 541.115Z" fill="#BFB2AC"/>
<path d="M165.97 412.168L113.018 412.57L112.98 407.718L165.934 407.317L165.97 412.168Z" fill="#323657"/>
<path d="M181.472 361.519L165.985 412.167L161.346 410.75L176.834 360.103L181.472 361.519Z" fill="#323657"/>
<path d="M205.902 545.817H201.77V418.495H205.902V545.817Z" fill="#706865"/>
<path d="M101.97 418.495H228.355V411.256H101.97V418.495Z" fill="#B59074"/>
<path d="M125.204 545.82H129.338V418.495H125.204V545.82Z" fill="#706865"/>
<defs>
<linearGradient id="paint0_linear_285_3291" x1="71.8652" y1="77.302" x2="489.481" y2="77.302" gradientUnits="userSpaceOnUse">
<stop stop-color="#40D5E6"/>
<stop offset="1" stop-color="#5577FF"/>
</linearGradient>
</defs>
</svg>
