<svg width="154" height="37" viewBox="0 0 154 37" fill="none" xmlns="http://www.w3.org/2000/svg">
<path d="M23.0398 36L17.2798 19.8L23.3998 0H24.4798L33.8398 29.52L31.6798 36H23.0398Z" fill="#1A1A1A"/>
<path d="M24.48 0H11.88L0 36H12.6L24.48 0Z" fill="#04B0A8"/>
<path d="M29.52 0H42.12L54 36H41.4L29.52 0Z" fill="#04B0A8"/>
<path d="M60.162 10V0.199999H62.038L66.21 7.116H65.216L69.318 0.199999H71.18L71.208 10H69.08L69.066 3.462H69.458L66.182 8.964H65.16L61.814 3.462H62.29V10H60.162ZM80.9531 10.168C80.1691 10.168 79.4178 10.0653 78.6991 9.86C77.9804 9.64533 77.4018 9.37 76.9631 9.034L77.7331 7.326C78.1531 7.62467 78.6478 7.872 79.2171 8.068C79.7958 8.25467 80.3791 8.348 80.9671 8.348C81.4151 8.348 81.7744 8.306 82.0451 8.222C82.3251 8.12867 82.5304 8.00267 82.6611 7.844C82.7918 7.68533 82.8571 7.50333 82.8571 7.298C82.8571 7.03667 82.7544 6.83133 82.5491 6.682C82.3438 6.52333 82.0731 6.39733 81.7371 6.304C81.4011 6.20133 81.0278 6.108 80.6171 6.024C80.2158 5.93067 79.8098 5.81867 79.3991 5.688C78.9978 5.55733 78.6291 5.38933 78.2931 5.184C77.9571 4.97867 77.6818 4.708 77.4671 4.372C77.2618 4.036 77.1591 3.60667 77.1591 3.084C77.1591 2.524 77.3084 2.01533 77.6071 1.558C77.9151 1.09133 78.3724 0.722666 78.9791 0.451999C79.5951 0.172 80.3651 0.0319998 81.2891 0.0319998C81.9051 0.0319998 82.5118 0.106666 83.1091 0.255999C83.7064 0.395999 84.2338 0.610666 84.6911 0.899999L83.9911 2.622C83.5338 2.36067 83.0764 2.16933 82.6191 2.048C82.1618 1.91733 81.7138 1.852 81.2751 1.852C80.8364 1.852 80.4771 1.90333 80.1971 2.006C79.9171 2.10867 79.7164 2.244 79.5951 2.412C79.4738 2.57067 79.4131 2.75733 79.4131 2.972C79.4131 3.224 79.5158 3.42933 79.7211 3.588C79.9264 3.73733 80.1971 3.85867 80.5331 3.952C80.8691 4.04533 81.2378 4.13867 81.6391 4.232C82.0498 4.32533 82.4558 4.43267 82.8571 4.554C83.2678 4.67533 83.6411 4.83867 83.9771 5.044C84.3131 5.24933 84.5838 5.52 84.7891 5.856C85.0038 6.192 85.1111 6.61667 85.1111 7.13C85.1111 7.68067 84.9571 8.18467 84.6491 8.642C84.3411 9.09933 83.8791 9.468 83.2631 9.748C82.6564 10.028 81.8864 10.168 80.9531 10.168ZM95.5508 10.168C94.7948 10.168 94.0902 10.0467 93.4368 9.804C92.7928 9.552 92.2328 9.19733 91.7568 8.74C91.2808 8.28267 90.9075 7.746 90.6368 7.13C90.3755 6.514 90.2448 5.83733 90.2448 5.1C90.2448 4.36267 90.3755 3.686 90.6368 3.07C90.9075 2.454 91.2808 1.91733 91.7568 1.46C92.2422 1.00267 92.8068 0.652666 93.4508 0.409999C94.0948 0.158 94.7995 0.0319998 95.5648 0.0319998C96.4142 0.0319998 97.1795 0.181333 97.8608 0.48C98.5515 0.769333 99.1302 1.19867 99.5968 1.768L98.1408 3.112C97.8048 2.72933 97.4315 2.44467 97.0208 2.258C96.6102 2.062 96.1622 1.964 95.6768 1.964C95.2195 1.964 94.7995 2.03867 94.4168 2.188C94.0342 2.33733 93.7028 2.552 93.4228 2.832C93.1428 3.112 92.9235 3.44333 92.7648 3.826C92.6155 4.20867 92.5408 4.63333 92.5408 5.1C92.5408 5.56667 92.6155 5.99133 92.7648 6.374C92.9235 6.75667 93.1428 7.088 93.4228 7.368C93.7028 7.648 94.0342 7.86267 94.4168 8.012C94.7995 8.16133 95.2195 8.236 95.6768 8.236C96.1622 8.236 96.6102 8.14267 97.0208 7.956C97.4315 7.76 97.8048 7.466 98.1408 7.074L99.5968 8.418C99.1302 8.98733 98.5515 9.42133 97.8608 9.72C97.1795 10.0187 96.4095 10.168 95.5508 10.168Z" fill="#04B0A8"/>
<path d="M75.89 15H80.75V36H75.89V15ZM66.35 36H61.49V15H66.35V36ZM76.25 27.39H65.99V23.28H76.25V27.39ZM85.7185 36V15H94.8085C96.6885 15 98.3085 15.31 99.6685 15.93C101.029 16.53 102.079 17.4 102.819 18.54C103.559 19.68 103.929 21.04 103.929 22.62C103.929 24.18 103.559 25.53 102.819 26.67C102.079 27.79 101.029 28.65 99.6685 29.25C98.3085 29.85 96.6885 30.15 94.8085 30.15H88.4185L90.5785 28.02V36H85.7185ZM99.0685 36L93.8185 28.38H99.0085L104.319 36H99.0685ZM90.5785 28.56L88.4185 26.28H94.5385C96.0385 26.28 97.1585 25.96 97.8985 25.32C98.6385 24.66 99.0085 23.76 99.0085 22.62C99.0085 21.46 98.6385 20.56 97.8985 19.92C97.1585 19.28 96.0385 18.96 94.5385 18.96H88.4185L90.5785 16.65V28.56ZM107.779 36V15H111.799L120.739 29.82H118.609L127.399 15H131.389L131.449 36H126.889L126.859 21.99H127.699L120.679 33.78H118.489L111.319 21.99H112.339V36H107.779ZM143.331 36.36C141.651 36.36 140.041 36.14 138.501 35.7C136.961 35.24 135.721 34.65 134.781 33.93L136.431 30.27C137.331 30.91 138.391 31.44 139.611 31.86C140.851 32.26 142.101 32.46 143.361 32.46C144.321 32.46 145.091 32.37 145.671 32.19C146.271 31.99 146.711 31.72 146.991 31.38C147.271 31.04 147.411 30.65 147.411 30.21C147.411 29.65 147.191 29.21 146.751 28.89C146.311 28.55 145.731 28.28 145.011 28.08C144.291 27.86 143.491 27.66 142.611 27.48C141.751 27.28 140.881 27.04 140.001 26.76C139.141 26.48 138.351 26.12 137.631 25.68C136.911 25.24 136.321 24.66 135.861 23.94C135.421 23.22 135.201 22.3 135.201 21.18C135.201 19.98 135.521 18.89 136.161 17.91C136.821 16.91 137.801 16.12 139.101 15.54C140.421 14.94 142.071 14.64 144.051 14.64C145.371 14.64 146.671 14.8 147.951 15.12C149.231 15.42 150.361 15.88 151.341 16.5L149.841 20.19C148.861 19.63 147.881 19.22 146.901 18.96C145.921 18.68 144.961 18.54 144.021 18.54C143.081 18.54 142.311 18.65 141.711 18.87C141.111 19.09 140.681 19.38 140.421 19.74C140.161 20.08 140.031 20.48 140.031 20.94C140.031 21.48 140.251 21.92 140.691 22.26C141.131 22.58 141.711 22.84 142.431 23.04C143.151 23.24 143.941 23.44 144.801 23.64C145.681 23.84 146.551 24.07 147.411 24.33C148.291 24.59 149.091 24.94 149.811 25.38C150.531 25.82 151.111 26.4 151.551 27.12C152.011 27.84 152.241 28.75 152.241 29.85C152.241 31.03 151.911 32.11 151.251 33.09C150.591 34.07 149.601 34.86 148.281 35.46C146.981 36.06 145.331 36.36 143.331 36.36Z" fill="#04B0A8"/>
</svg>
