<svg width="24" height="24" viewBox="0 0 24 24" fill="none" xmlns="http://www.w3.org/2000/svg">
<path d="M1.71441 15.0229C1.67316 14.9634 1.63351 14.9018 1.5928 14.844C0.5567 13.3041 0.00228119 11.4907 0.000135422 9.63474C-0.0170078 4.31514 4.47117 0 10.0211 0C14.8618 0 18.9 3.29408 19.846 7.66708C19.988 8.31518 20.0598 8.97665 20.0603 9.6401C20.0603 14.9651 15.7446 19.3959 10.1947 19.3959C9.31238 19.3959 8.12364 19.1307 7.47168 18.9518C6.81972 18.7729 6.17366 18.5366 6.00651 18.4729C5.83937 18.4091 5.57795 18.3438 5.36956 18.4038L1.22209 19.6027C1.18562 19.6135 1.14695 19.6143 1.11003 19.6052C1.07312 19.5961 1.03929 19.5774 1.01202 19.5508C0.984758 19.5243 0.965034 19.4911 0.95488 19.4544C0.944723 19.4178 0.9445 19.3791 0.954233 19.3423L1.90351 15.7268C1.9694 15.459 1.97798 15.4086 1.71441 15.0229Z" fill="#2D4040"/>
<path d="M8.97113 20.538C9.38338 20.604 9.79977 20.6407 10.2172 20.6479C12.4902 20.6479 14.6368 20.0479 16.3779 18.9229C17.4916 18.2393 18.4583 17.3412 19.2219 16.2808C20.6191 14.4288 21.3809 12.0749 21.3809 9.61171C21.3809 9.44403 21.375 9.28278 21.3691 9.121C21.3669 9.07328 21.3796 9.02608 21.4052 8.98579C21.4309 8.9455 21.4683 8.91409 21.5124 8.89583C21.5566 8.87757 21.6053 8.87334 21.6519 8.88373C21.6985 8.89411 21.7408 8.91859 21.773 8.95386C23.0557 10.3574 23.8312 12.1502 23.9755 14.0461C24.1198 15.942 23.6246 17.8316 22.5691 19.4131C22.4367 19.615 22.3617 19.7709 22.3848 19.8748L23.1396 23.7459C23.1466 23.7827 23.1437 23.8207 23.1314 23.8561C23.1191 23.8915 23.0978 23.923 23.0695 23.9476C23.0412 23.9721 23.007 23.9888 22.9702 23.996C22.9334 24.0032 22.8954 24.0006 22.8599 23.9886L19.2171 22.69C19.1067 22.6463 18.9886 22.6249 18.8699 22.6269C18.7511 22.6289 18.6339 22.6544 18.525 22.7018C17.4348 23.1303 16.2289 23.3939 15.023 23.3939C12.7019 23.4015 10.4661 22.5197 8.77506 20.9297C8.74015 20.8956 8.71697 20.8514 8.70886 20.8033C8.70076 20.7552 8.70816 20.7058 8.72998 20.6622C8.75181 20.6186 8.78694 20.5831 8.83029 20.5608C8.87364 20.5384 8.92297 20.5305 8.97113 20.538Z" fill="#2D4040"/>
</svg>
