<svg width="61" height="60" viewBox="0 0 61 60" fill="none" xmlns="http://www.w3.org/2000/svg">
<rect x="0.666504" width="60" height="60" rx="30" fill="#FFC44D"/>
<path d="M30.3264 15C34.3706 15 38.0379 16.6397 40.6947 19.2761C43.3511 21.9234 44.9857 25.5671 44.9857 29.6075C44.9857 32.5548 44.1039 35.3091 42.5981 37.6025L45.6665 39.9955L41.2893 45L38.447 41.7715C36.1233 43.3147 33.3268 44.2152 30.3264 44.2152C26.2822 44.2152 22.6146 42.5753 19.9581 39.9391C17.3014 37.2916 15.6665 33.6476 15.6665 29.6075C15.6665 25.5777 17.3121 21.9234 19.9581 19.2761C22.6146 16.6291 26.2716 15 30.3264 15ZM39.5331 20.4335C37.1774 18.0865 33.9186 16.6291 30.3264 16.6291C26.7339 16.6291 23.4751 18.0868 21.1197 20.4335C18.7643 22.7806 17.3014 26.0278 17.3014 29.6075C17.3014 33.1871 18.7643 36.4344 21.1197 38.7814C23.4751 41.1285 26.7339 42.5862 30.3264 42.5862C33.9186 42.5862 37.1774 41.1285 39.5331 38.7814C41.8882 36.4344 43.3511 33.1871 43.3511 29.6075C43.3511 26.0278 41.8882 22.7806 39.5331 20.4335Z" fill="white"/>
<path d="M24.9637 25.5516H22.5775L22.5772 30.5136C22.5772 31.0035 22.5147 31.3526 22.391 31.5591C22.2658 31.7655 22.0703 31.8686 21.8036 31.8686C21.6349 31.8686 21.5059 31.8349 21.4147 31.7655C21.2804 31.6582 21.1855 31.5214 21.1299 31.3487C21.0743 31.1782 21.044 30.9155 21.0402 30.5624L18.7724 30.8853C18.8136 31.508 18.9513 32.0319 19.1843 32.454C19.4173 32.8783 19.7469 33.199 20.1751 33.4186C20.6014 33.6381 21.2036 33.749 21.981 33.749C22.7156 33.749 23.319 33.5822 23.7903 33.2501C24.2613 32.916 24.5746 32.5086 24.7307 32.0299C24.8866 31.5496 24.9637 30.8494 24.9637 29.9299V25.5516Z" fill="white"/>
<path fill-rule="evenodd" clip-rule="evenodd" d="M25.7052 29.5883C25.7052 28.2726 26.0544 27.2481 26.7549 26.5162C27.4555 25.7823 28.43 25.4161 29.6805 25.4161C30.9614 25.4161 31.9484 25.7767 32.6418 26.4952C33.3348 27.2161 33.6806 28.2258 33.6806 29.5225C33.6806 30.4642 33.5306 31.2358 33.2274 31.8382C32.9247 32.4409 32.4856 32.9098 31.9143 33.2458C31.3412 33.5815 30.6282 33.7487 29.7736 33.7487C28.9066 33.7487 28.1882 33.6044 27.6185 33.3152C27.0507 33.0243 26.5885 32.5665 26.2355 31.9396C25.8823 31.315 25.7052 30.5303 25.7052 29.5883ZM28.5143 31.3467C28.2257 30.992 28.0808 30.4063 28.0808 29.5939C28.0808 28.7739 28.2257 28.1846 28.518 27.8299C28.8082 27.4752 29.1952 27.2972 29.6752 27.2972C30.1765 27.2972 30.5726 27.4716 30.8665 27.8224C31.1582 28.1715 31.3053 28.7251 31.3053 29.4833C31.3053 30.3857 31.1657 31.009 30.8843 31.3578C30.6047 31.705 30.2071 31.8797 29.6968 31.8797C29.1986 31.8797 28.8045 31.7014 28.5143 31.3467Z" fill="white"/>
<path fill-rule="evenodd" clip-rule="evenodd" d="M38.8884 25.5516H34.4327V33.6139H38.5389C38.7144 33.6139 39.0689 33.5766 39.6046 33.5033C40.0078 33.4487 40.3082 33.3603 40.5091 33.2406C40.8301 33.0449 41.0844 32.7825 41.2705 32.4484C41.4554 32.1143 41.5488 31.739 41.5488 31.3205C41.5488 30.8085 41.4176 30.3824 41.1584 30.0425C40.8967 29.7028 40.4916 29.4646 39.9384 29.3259C40.302 29.1927 40.5793 29.0144 40.7674 28.7854C41.0522 28.4457 41.1937 28.0367 41.1937 27.56C41.1937 26.9913 40.9951 26.5146 40.5971 26.1298C40.1992 25.745 39.6302 25.5516 38.8884 25.5516ZM36.8295 28.7157H37.8671C38.2381 28.7157 38.498 28.6479 38.6423 28.5148C38.7875 28.3796 38.8612 28.1866 38.8612 27.933C38.8612 27.6987 38.7875 27.5145 38.6423 27.3833C38.4977 27.2501 38.2434 27.1843 37.8827 27.1843H36.8292L36.8295 28.7157ZM38.0429 31.8797H36.8295V30.247H38.0373C38.4545 30.247 38.7469 30.3203 38.9134 30.4646C39.0798 30.6092 39.1623 30.8003 39.1623 31.0388C39.1623 31.296 39.078 31.4985 38.9096 31.6507C38.7413 31.8028 38.453 31.8797 38.0429 31.8797Z" fill="white"/>
</svg>
