<svg width="60" height="60" viewBox="0 0 60 60" fill="none" xmlns="http://www.w3.org/2000/svg">
<rect width="60" height="60" rx="30" fill="#6DCC3D"/>
<path fill-rule="evenodd" clip-rule="evenodd" d="M29.9483 15C35.5421 18.2263 40.5955 19.7527 44.9325 19.3918C45.6899 33.3318 40.0323 41.5642 30.0063 45C20.3242 41.7842 14.5973 33.906 15.0221 19.1804C20.1133 19.4229 25.1082 18.4214 29.9483 15ZM30.0691 19.7712C33.8837 21.9712 37.3299 23.012 40.2872 22.7664C40.8037 32.2722 36.9456 37.886 30.1088 40.2288C30.0656 40.2144 30.0232 40.1995 29.9802 40.1848V19.833L30.0691 19.7712ZM29.9542 16.7224C34.9057 19.5781 39.379 20.9294 43.218 20.6099C43.8882 32.949 38.8804 40.2363 30.006 43.2773C21.4356 40.4309 16.3658 33.4578 16.742 20.4226C21.2488 20.6375 25.6701 19.751 29.9542 16.7224Z" fill="white"/>
</svg>
