<svg width="61" height="60" viewBox="0 0 61 60" fill="none" xmlns="http://www.w3.org/2000/svg">
<rect x="0.333008" width="60" height="60" rx="30" fill="#3689B3"/>
<path fill-rule="evenodd" clip-rule="evenodd" d="M28.5209 29.3465C28.4167 29.3412 28.31 29.3386 28.201 29.3386H26.896L28.5209 29.3465Z" fill="white"/>
<path fill-rule="evenodd" clip-rule="evenodd" d="M20.8678 15H33.6446C33.8304 15 33.9954 15.0909 34.0979 15.2317L41.1987 23.7261C41.2846 23.8291 41.3318 23.9596 41.3319 24.0945L41.333 43.445C41.333 43.8691 41.1587 44.258 40.8808 44.5395L40.8785 44.5419C40.6006 44.8234 40.2168 45 39.7982 45H20.8678C20.4498 45 20.0648 44.8246 19.7863 44.5425L19.784 44.5401C19.5067 44.2585 19.333 43.8708 19.333 43.445V16.5551C19.333 16.1286 19.5055 15.7403 19.7834 15.4587L19.7857 15.4564C20.0636 15.1748 20.4469 15 20.8678 15ZM33.5276 15.955H32.9504C32.9175 16.4214 32.8845 16.8634 32.8533 17.2822C32.3367 24.2172 32.2951 24.7756 40.4078 24.5045V24.2306L33.5276 15.955ZM35.2799 31.8592L34.8778 33.2369H33.2364C33.1684 33.8457 32.9947 34.4067 32.7154 34.9199C32.3512 35.5932 31.7872 36.1281 31.0234 36.5247C30.2647 36.9161 29.2961 37.1118 28.1175 37.1118H27.5712L33.1858 42.8826V43H31.418L25.4544 36.8065L25.4392 35.7967H28.0492C28.8383 35.7967 29.5111 35.6793 30.0675 35.4444C30.6239 35.2044 31.0487 34.8495 31.3421 34.3798C31.5497 34.0531 31.6851 33.6722 31.7483 33.2369H25.333L25.7275 31.8592H31.7228C31.6007 31.1964 31.312 30.651 30.8565 30.2231C30.2978 29.6892 29.5192 29.397 28.5209 29.3465L26.896 29.3386H25.333L25.7275 28H27.2602H28.201H35.333L34.9385 29.3777L32.0442 29.3636C32.3006 29.6228 32.5167 29.9145 32.6926 30.2388C32.9632 30.7272 33.1385 31.2674 33.2187 31.8592H35.2799Z" fill="white"/>
</svg>
