<svg width="20" height="20" viewBox="0 0 20 20" fill="none" xmlns="http://www.w3.org/2000/svg">
<path d="M15.625 3.28571C15.625 2.67951 15.3879 2.09812 14.966 1.66947C14.544 1.24082 13.9717 1 13.375 1H6.625C6.02826 1 5.45597 1.24082 5.03401 1.66947C4.61205 2.09812 4.375 2.67951 4.375 3.28571M15.625 3.28571V16.7143M15.625 3.28571V3.85714M15.625 16.7143C15.625 17.3205 15.3879 17.9019 14.966 18.3305C14.544 18.7592 13.9717 19 13.375 19H6.625C6.02826 19 5.45597 18.7592 5.03401 18.3305C4.61205 17.9019 4.375 17.3205 4.375 16.7143M15.625 16.7143V16.1429M4.375 16.7143V3.28571M4.375 16.7143V16.1429M4.375 3.28571V3.85714M15.625 3.85714H16.75C17.3467 3.85714 17.919 4.09796 18.341 4.52661C18.7629 4.95527 19 5.53665 19 6.14286V13.8571C19 14.4634 18.7629 15.0447 18.341 15.4734C17.919 15.902 17.3467 16.1429 16.75 16.1429H15.625M15.625 3.85714V16.1429M4.375 3.85714H3.25C2.65326 3.85714 2.08097 4.09796 1.65901 4.52661C1.23705 4.95527 1 5.53665 1 6.14286V13.8571C1 14.4634 1.23705 15.0447 1.65901 15.4734C2.08097 15.902 2.65326 16.1429 3.25 16.1429H4.375M4.375 3.85714V16.1429" stroke="#33BBFF" stroke-width="2" stroke-linecap="round" stroke-linejoin="round"/>
</svg>
